solid OpenSCAD_Model
  facet normal 0.924066 0.0453968 0.379527
    outer loop
      vertex 22.8892 2.25439 0
      vertex 11.5 0 28
      vertex 23 0 0
    endloop
  endfacet
  facet normal 0.915167 0.135753 0.379527
    outer loop
      vertex 22.5581 4.48708 0
      vertex 11.4446 1.1272 28
      vertex 22.8892 2.25439 0
    endloop
  endfacet
  facet normal -0.743112 0.551129 0.379527
    outer loop
      vertex -17.7792 14.591 0
      vertex -19.1238 12.7781 0
      vertex -8.88962 7.29552 28
    endloop
  endfacet
  facet normal -0.685513 0.621314 0.379527
    outer loop
      vertex -8.13173 8.13173 28
      vertex -16.2635 16.2635 0
      vertex -8.88962 7.29552 28
    endloop
  endfacet
  facet normal -0.924066 0.0453968 0.379527
    outer loop
      vertex -22.8892 2.25439 0
      vertex -23 0 0
      vertex -11.5 0 28
    endloop
  endfacet
  facet normal -0.915167 -0.135753 0.379527
    outer loop
      vertex -11.4446 -1.1272 28
      vertex -22.5581 -4.48708 0
      vertex -11.279 -2.24354 28
    endloop
  endfacet
  facet normal 0.475638 0.793554 0.379527
    outer loop
      vertex 10.8421 20.2842 0
      vertex 5.42106 10.1421 28
      vertex 6.38906 9.5619 28
    endloop
  endfacet
  facet normal 0.743112 0.551129 0.379527
    outer loop
      vertex 19.1238 12.7781 0
      vertex 8.88962 7.29552 28
      vertex 9.5619 6.38906 28
    endloop
  endfacet
  facet normal 0.685513 -0.621314 0.379527
    outer loop
      vertex 17.7792 -14.591 0
      vertex 8.88962 -7.29552 28
      vertex 16.2635 -16.2635 0
    endloop
  endfacet
  facet normal -0.685513 0.621314 0.379527
    outer loop
      vertex -16.2635 16.2635 0
      vertex -17.7792 14.591 0
      vertex -8.88962 7.29552 28
    endloop
  endfacet
  facet normal -0.395566 0.836353 0.379527
    outer loop
      vertex -8.80172 21.2492 0
      vertex -10.8421 20.2842 0
      vertex -5.42106 10.1421 28
    endloop
  endfacet
  facet normal -0.924066 0.0453968 0.379527
    outer loop
      vertex -11.4446 1.1272 28
      vertex -22.8892 2.25439 0
      vertex -11.5 0 28
    endloop
  endfacet
  facet normal -0.621314 -0.685513 0.379527
    outer loop
      vertex -8.13173 -8.13173 28
      vertex -16.2635 -16.2635 0
      vertex -7.29552 -8.88962 28
    endloop
  endfacet
  facet normal 0.793554 0.475638 0.379527
    outer loop
      vertex 19.1238 12.7781 0
      vertex 9.5619 6.38906 28
      vertex 20.2842 10.8421 0
    endloop
  endfacet
  facet normal 0.897454 0.2248 0.379527
    outer loop
      vertex 11.0048 3.33827 28
      vertex 22.5581 4.48708 0
      vertex 22.0096 6.67655 0
    endloop
  endfacet
  facet normal 0.897454 0.2248 0.379527
    outer loop
      vertex 22.5581 4.48708 0
      vertex 11.0048 3.33827 28
      vertex 11.279 2.24354 28
    endloop
  endfacet
  facet normal 0.836353 -0.395566 0.379527
    outer loop
      vertex 21.2492 -8.80172 0
      vertex 10.1421 -5.42106 28
      vertex 20.2842 -10.8421 0
    endloop
  endfacet
  facet normal 0.836353 -0.395565 0.379527
    outer loop
      vertex 10.6246 -4.40086 28
      vertex 10.1421 -5.42106 28
      vertex 21.2492 -8.80172 0
    endloop
  endfacet
  facet normal 0.924066 -0.0453968 0.379527
    outer loop
      vertex 23 0 0
      vertex 11.5 0 28
      vertex 22.8892 -2.25439 0
    endloop
  endfacet
  facet normal -0.793554 0.475638 0.379527
    outer loop
      vertex -19.1238 12.7781 0
      vertex -20.2842 10.8421 0
      vertex -9.5619 6.38906 28
    endloop
  endfacet
  facet normal -0.551129 0.743112 0.379527
    outer loop
      vertex -12.7781 19.1238 0
      vertex -14.591 17.7792 0
      vertex -7.29552 8.88962 28
    endloop
  endfacet
  facet normal -0.475638 0.793554 0.379527
    outer loop
      vertex -5.42106 10.1421 28
      vertex -10.8421 20.2842 0
      vertex -6.38906 9.5619 28
    endloop
  endfacet
  facet normal 0.0453968 0.924066 0.379527
    outer loop
      vertex 0 23 0
      vertex 0 11.5 28
      vertex 2.25439 22.8892 0
    endloop
  endfacet
  facet normal -0.871098 0.311684 0.379527
    outer loop
      vertex -22.0096 6.67655 0
      vertex -10.6246 4.40086 28
      vertex -21.2492 8.80172 0
    endloop
  endfacet
  facet normal -0.871098 0.311684 0.379527
    outer loop
      vertex -10.6246 4.40086 28
      vertex -22.0096 6.67655 0
      vertex -11.0048 3.33827 28
    endloop
  endfacet
  facet normal 0 0 1
    outer loop
      vertex 4.5 0 28
      vertex 11.5 0 28
      vertex 11.4446 1.1272 28
    endloop
  endfacet
  facet normal 0 0 1
    outer loop
      vertex 4.47833 0.441076 28
      vertex 11.4446 1.1272 28
      vertex 11.279 2.24354 28
    endloop
  endfacet
  facet normal 0 0 1
    outer loop
      vertex 11.5 0 28
      vertex 4.5 0 28
      vertex 11.4446 -1.1272 28
    endloop
  endfacet
  facet normal 0 0 1
    outer loop
      vertex 4.41353 0.877906 28
      vertex 11.279 2.24354 28
      vertex 11.0048 3.33827 28
    endloop
  endfacet
  facet normal -0 0 1
    outer loop
      vertex 4.47833 -0.441076 28
      vertex 11.4446 -1.1272 28
      vertex 4.5 0 28
    endloop
  endfacet
  facet normal 0 0 1
    outer loop
      vertex 4.30623 1.30628 28
      vertex 11.0048 3.33827 28
      vertex 10.6246 4.40086 28
    endloop
  endfacet
  facet normal 0 0 1
    outer loop
      vertex 11.4446 -1.1272 28
      vertex 4.47833 -0.441076 28
      vertex 11.279 -2.24354 28
    endloop
  endfacet
  facet normal 0 0 1
    outer loop
      vertex 4.15746 1.72207 28
      vertex 10.6246 4.40086 28
      vertex 10.1421 5.42106 28
    endloop
  endfacet
  facet normal -0 0 1
    outer loop
      vertex 4.41353 -0.877906 28
      vertex 11.279 -2.24354 28
      vertex 4.47833 -0.441076 28
    endloop
  endfacet
  facet normal 0 0 1
    outer loop
      vertex 3.96865 2.12128 28
      vertex 10.1421 5.42106 28
      vertex 9.5619 6.38906 28
    endloop
  endfacet
  facet normal 0 0 1
    outer loop
      vertex 11.279 -2.24354 28
      vertex 4.41353 -0.877906 28
      vertex 11.0048 -3.33827 28
    endloop
  endfacet
  facet normal 0 0 1
    outer loop
      vertex 3.74161 2.50007 28
      vertex 9.5619 6.38906 28
      vertex 8.88962 7.29552 28
    endloop
  endfacet
  facet normal -0 0 1
    outer loop
      vertex 4.30623 -1.30628 28
      vertex 11.0048 -3.33827 28
      vertex 4.41353 -0.877906 28
    endloop
  endfacet
  facet normal 0 0 1
    outer loop
      vertex 3.47855 2.85477 28
      vertex 8.88962 7.29552 28
      vertex 8.13173 8.13173 28
    endloop
  endfacet
  facet normal 0 0 1
    outer loop
      vertex 11.0048 -3.33827 28
      vertex 4.30623 -1.30628 28
      vertex 10.6246 -4.40086 28
    endloop
  endfacet
  facet normal 0 0 1
    outer loop
      vertex 3.18198 3.18198 28
      vertex 8.13173 8.13173 28
      vertex 7.29552 8.88962 28
    endloop
  endfacet
  facet normal -0 0 1
    outer loop
      vertex 4.15746 -1.72207 28
      vertex 10.6246 -4.40086 28
      vertex 4.30623 -1.30628 28
    endloop
  endfacet
  facet normal 0 0 1
    outer loop
      vertex 2.85477 3.47855 28
      vertex 7.29552 8.88962 28
      vertex 6.38906 9.5619 28
    endloop
  endfacet
  facet normal 0 0 1
    outer loop
      vertex 10.6246 -4.40086 28
      vertex 4.15746 -1.72207 28
      vertex 10.1421 -5.42106 28
    endloop
  endfacet
  facet normal 0 0 1
    outer loop
      vertex 2.50007 3.74161 28
      vertex 6.38906 9.5619 28
      vertex 5.42106 10.1421 28
    endloop
  endfacet
  facet normal -0 0 1
    outer loop
      vertex 3.96865 -2.12128 28
      vertex 10.1421 -5.42106 28
      vertex 4.15746 -1.72207 28
    endloop
  endfacet
  facet normal 0 0 1
    outer loop
      vertex 10.1421 -5.42106 28
      vertex 3.96865 -2.12128 28
      vertex 9.5619 -6.38906 28
    endloop
  endfacet
  facet normal 0 0 1
    outer loop
      vertex 11.4446 1.1272 28
      vertex 4.47833 0.441076 28
      vertex 4.5 0 28
    endloop
  endfacet
  facet normal 0 0 1
    outer loop
      vertex 11.279 2.24354 28
      vertex 4.41353 0.877906 28
      vertex 4.47833 0.441076 28
    endloop
  endfacet
  facet normal 0 0 1
    outer loop
      vertex 2.12128 3.96865 28
      vertex 5.42106 10.1421 28
      vertex 4.40086 10.6246 28
    endloop
  endfacet
  facet normal 0 0 1
    outer loop
      vertex 11.0048 3.33827 28
      vertex 4.30623 1.30628 28
      vertex 4.41353 0.877906 28
    endloop
  endfacet
  facet normal 0 0 1
    outer loop
      vertex 10.6246 4.40086 28
      vertex 4.15746 1.72207 28
      vertex 4.30623 1.30628 28
    endloop
  endfacet
  facet normal 0 0 1
    outer loop
      vertex 10.1421 5.42106 28
      vertex 3.96865 2.12128 28
      vertex 4.15746 1.72207 28
    endloop
  endfacet
  facet normal 0 0 1
    outer loop
      vertex 9.5619 6.38906 28
      vertex 3.74161 2.50007 28
      vertex 3.96865 2.12128 28
    endloop
  endfacet
  facet normal 0 0 1
    outer loop
      vertex 8.88962 7.29552 28
      vertex 3.47855 2.85477 28
      vertex 3.74161 2.50007 28
    endloop
  endfacet
  facet normal 0 0 1
    outer loop
      vertex 1.72207 4.15746 28
      vertex 4.40086 10.6246 28
      vertex 3.33827 11.0048 28
    endloop
  endfacet
  facet normal 0 0 1
    outer loop
      vertex 8.13173 8.13173 28
      vertex 3.18198 3.18198 28
      vertex 3.47855 2.85477 28
    endloop
  endfacet
  facet normal 0 0 1
    outer loop
      vertex 7.29552 8.88962 28
      vertex 2.85477 3.47855 28
      vertex 3.18198 3.18198 28
    endloop
  endfacet
  facet normal 0 0 1
    outer loop
      vertex 6.38906 9.5619 28
      vertex 2.50007 3.74161 28
      vertex 2.85477 3.47855 28
    endloop
  endfacet
  facet normal 0 0 1
    outer loop
      vertex 1.30628 4.30623 28
      vertex 3.33827 11.0048 28
      vertex 2.24354 11.279 28
    endloop
  endfacet
  facet normal 0 0 1
    outer loop
      vertex 5.42106 10.1421 28
      vertex 2.12128 3.96865 28
      vertex 2.50007 3.74161 28
    endloop
  endfacet
  facet normal 0 0 1
    outer loop
      vertex 4.40086 10.6246 28
      vertex 1.72207 4.15746 28
      vertex 2.12128 3.96865 28
    endloop
  endfacet
  facet normal 0 0 1
    outer loop
      vertex 3.33827 11.0048 28
      vertex 1.30628 4.30623 28
      vertex 1.72207 4.15746 28
    endloop
  endfacet
  facet normal 0 0 1
    outer loop
      vertex 0.877906 4.41353 28
      vertex 2.24354 11.279 28
      vertex 1.1272 11.4446 28
    endloop
  endfacet
  facet normal 0 0 1
    outer loop
      vertex 2.24354 11.279 28
      vertex 0.877906 4.41353 28
      vertex 1.30628 4.30623 28
    endloop
  endfacet
  facet normal 0 0 1
    outer loop
      vertex 1.1272 11.4446 28
      vertex 0.441076 4.47833 28
      vertex 0.877906 4.41353 28
    endloop
  endfacet
  facet normal 0 0 1
    outer loop
      vertex 0 11.5 28
      vertex 0.441076 4.47833 28
      vertex 1.1272 11.4446 28
    endloop
  endfacet
  facet normal 0 0 1
    outer loop
      vertex 0 11.5 28
      vertex 0 4.5 28
      vertex 0.441076 4.47833 28
    endloop
  endfacet
  facet normal 0 0 1
    outer loop
      vertex 0 11.5 28
      vertex -0.441076 4.47833 28
      vertex 0 4.5 28
    endloop
  endfacet
  facet normal -0 0 1
    outer loop
      vertex -1.1272 11.4446 28
      vertex -0.441076 4.47833 28
      vertex 0 11.5 28
    endloop
  endfacet
  facet normal 0 0 1
    outer loop
      vertex -0.441076 4.47833 28
      vertex -1.1272 11.4446 28
      vertex -0.877906 4.41353 28
    endloop
  endfacet
  facet normal -0 0 1
    outer loop
      vertex -2.24354 11.279 28
      vertex -0.877906 4.41353 28
      vertex -1.1272 11.4446 28
    endloop
  endfacet
  facet normal 0 0 1
    outer loop
      vertex -0.877906 4.41353 28
      vertex -2.24354 11.279 28
      vertex -1.30628 4.30623 28
    endloop
  endfacet
  facet normal -0 0 1
    outer loop
      vertex -3.33827 11.0048 28
      vertex -1.30628 4.30623 28
      vertex -2.24354 11.279 28
    endloop
  endfacet
  facet normal 0 0 1
    outer loop
      vertex -1.30628 4.30623 28
      vertex -3.33827 11.0048 28
      vertex -1.72207 4.15746 28
    endloop
  endfacet
  facet normal -0 0 1
    outer loop
      vertex -4.40086 10.6246 28
      vertex -1.72207 4.15746 28
      vertex -3.33827 11.0048 28
    endloop
  endfacet
  facet normal 0 0 1
    outer loop
      vertex -1.72207 4.15746 28
      vertex -4.40086 10.6246 28
      vertex -2.12128 3.96865 28
    endloop
  endfacet
  facet normal -0 0 1
    outer loop
      vertex -5.42106 10.1421 28
      vertex -2.12128 3.96865 28
      vertex -4.40086 10.6246 28
    endloop
  endfacet
  facet normal 0 0 1
    outer loop
      vertex -2.12128 3.96865 28
      vertex -5.42106 10.1421 28
      vertex -2.50007 3.74161 28
    endloop
  endfacet
  facet normal -0 0 1
    outer loop
      vertex -6.38906 9.5619 28
      vertex -2.50007 3.74161 28
      vertex -5.42106 10.1421 28
    endloop
  endfacet
  facet normal 0 0 1
    outer loop
      vertex -2.50007 3.74161 28
      vertex -6.38906 9.5619 28
      vertex -2.85477 3.47855 28
    endloop
  endfacet
  facet normal -0 0 1
    outer loop
      vertex -7.29552 8.88962 28
      vertex -2.85477 3.47855 28
      vertex -6.38906 9.5619 28
    endloop
  endfacet
  facet normal 0 0 1
    outer loop
      vertex -2.85477 3.47855 28
      vertex -7.29552 8.88962 28
      vertex -3.18198 3.18198 28
    endloop
  endfacet
  facet normal -0 0 1
    outer loop
      vertex -8.13173 8.13173 28
      vertex -3.18198 3.18198 28
      vertex -7.29552 8.88962 28
    endloop
  endfacet
  facet normal 0 0 1
    outer loop
      vertex -3.18198 3.18198 28
      vertex -8.13173 8.13173 28
      vertex -3.47855 2.85477 28
    endloop
  endfacet
  facet normal -0 0 1
    outer loop
      vertex -8.88962 7.29552 28
      vertex -3.47855 2.85477 28
      vertex -8.13173 8.13173 28
    endloop
  endfacet
  facet normal 0 0 1
    outer loop
      vertex -3.47855 2.85477 28
      vertex -8.88962 7.29552 28
      vertex -3.74161 2.50007 28
    endloop
  endfacet
  facet normal -0 0 1
    outer loop
      vertex -9.5619 6.38906 28
      vertex -3.74161 2.50007 28
      vertex -8.88962 7.29552 28
    endloop
  endfacet
  facet normal 0 0 1
    outer loop
      vertex -3.74161 2.50007 28
      vertex -9.5619 6.38906 28
      vertex -3.96865 2.12128 28
    endloop
  endfacet
  facet normal -0 0 1
    outer loop
      vertex 3.74161 -2.50007 28
      vertex 9.5619 -6.38906 28
      vertex 3.96865 -2.12128 28
    endloop
  endfacet
  facet normal 0 0 1
    outer loop
      vertex 9.5619 -6.38906 28
      vertex 3.74161 -2.50007 28
      vertex 8.88962 -7.29552 28
    endloop
  endfacet
  facet normal -0 0 1
    outer loop
      vertex 3.47855 -2.85477 28
      vertex 8.88962 -7.29552 28
      vertex 3.74161 -2.50007 28
    endloop
  endfacet
  facet normal 0 0 1
    outer loop
      vertex 8.88962 -7.29552 28
      vertex 3.47855 -2.85477 28
      vertex 8.13173 -8.13173 28
    endloop
  endfacet
  facet normal -0 0 1
    outer loop
      vertex 3.18198 -3.18198 28
      vertex 8.13173 -8.13173 28
      vertex 3.47855 -2.85477 28
    endloop
  endfacet
  facet normal 0 0 1
    outer loop
      vertex 8.13173 -8.13173 28
      vertex 3.18198 -3.18198 28
      vertex 7.29552 -8.88962 28
    endloop
  endfacet
  facet normal -0 0 1
    outer loop
      vertex 2.85477 -3.47855 28
      vertex 7.29552 -8.88962 28
      vertex 3.18198 -3.18198 28
    endloop
  endfacet
  facet normal 0 0 1
    outer loop
      vertex 7.29552 -8.88962 28
      vertex 2.85477 -3.47855 28
      vertex 6.38906 -9.5619 28
    endloop
  endfacet
  facet normal -0 0 1
    outer loop
      vertex 2.50007 -3.74161 28
      vertex 6.38906 -9.5619 28
      vertex 2.85477 -3.47855 28
    endloop
  endfacet
  facet normal 0 0 1
    outer loop
      vertex 6.38906 -9.5619 28
      vertex 2.50007 -3.74161 28
      vertex 5.42106 -10.1421 28
    endloop
  endfacet
  facet normal -0 0 1
    outer loop
      vertex 2.12128 -3.96865 28
      vertex 5.42106 -10.1421 28
      vertex 2.50007 -3.74161 28
    endloop
  endfacet
  facet normal 0 0 1
    outer loop
      vertex 5.42106 -10.1421 28
      vertex 2.12128 -3.96865 28
      vertex 4.40086 -10.6246 28
    endloop
  endfacet
  facet normal -0 0 1
    outer loop
      vertex 1.72207 -4.15746 28
      vertex 4.40086 -10.6246 28
      vertex 2.12128 -3.96865 28
    endloop
  endfacet
  facet normal 0 0 1
    outer loop
      vertex 4.40086 -10.6246 28
      vertex 1.72207 -4.15746 28
      vertex 3.33827 -11.0048 28
    endloop
  endfacet
  facet normal -0 0 1
    outer loop
      vertex 1.30628 -4.30623 28
      vertex 3.33827 -11.0048 28
      vertex 1.72207 -4.15746 28
    endloop
  endfacet
  facet normal 0 0 1
    outer loop
      vertex 3.33827 -11.0048 28
      vertex 1.30628 -4.30623 28
      vertex 2.24354 -11.279 28
    endloop
  endfacet
  facet normal -0 0 1
    outer loop
      vertex 0.877906 -4.41353 28
      vertex 2.24354 -11.279 28
      vertex 1.30628 -4.30623 28
    endloop
  endfacet
  facet normal 0 0 1
    outer loop
      vertex 2.24354 -11.279 28
      vertex 0.877906 -4.41353 28
      vertex 1.1272 -11.4446 28
    endloop
  endfacet
  facet normal -0 0 1
    outer loop
      vertex 0.441076 -4.47833 28
      vertex 1.1272 -11.4446 28
      vertex 0.877906 -4.41353 28
    endloop
  endfacet
  facet normal -0 0 1
    outer loop
      vertex 0 -4.5 28
      vertex 1.1272 -11.4446 28
      vertex 0.441076 -4.47833 28
    endloop
  endfacet
  facet normal 0 0 1
    outer loop
      vertex 0 -4.5 28
      vertex 0 -11.5 28
      vertex 1.1272 -11.4446 28
    endloop
  endfacet
  facet normal 0 0 1
    outer loop
      vertex -0.441076 -4.47833 28
      vertex 0 -11.5 28
      vertex 0 -4.5 28
    endloop
  endfacet
  facet normal 0 0 1
    outer loop
      vertex -1.1272 -11.4446 28
      vertex -0.441076 -4.47833 28
      vertex -0.877906 -4.41353 28
    endloop
  endfacet
  facet normal 0 0 1
    outer loop
      vertex -0.441076 -4.47833 28
      vertex -1.1272 -11.4446 28
      vertex 0 -11.5 28
    endloop
  endfacet
  facet normal 0 0 1
    outer loop
      vertex -2.24354 -11.279 28
      vertex -0.877906 -4.41353 28
      vertex -1.30628 -4.30623 28
    endloop
  endfacet
  facet normal 0 0 1
    outer loop
      vertex -3.33827 -11.0048 28
      vertex -1.30628 -4.30623 28
      vertex -1.72207 -4.15746 28
    endloop
  endfacet
  facet normal 0 0 1
    outer loop
      vertex -4.40086 -10.6246 28
      vertex -1.72207 -4.15746 28
      vertex -2.12128 -3.96865 28
    endloop
  endfacet
  facet normal 0 0 1
    outer loop
      vertex -0.877906 -4.41353 28
      vertex -2.24354 -11.279 28
      vertex -1.1272 -11.4446 28
    endloop
  endfacet
  facet normal 0 0 1
    outer loop
      vertex -5.42106 -10.1421 28
      vertex -2.12128 -3.96865 28
      vertex -2.50007 -3.74161 28
    endloop
  endfacet
  facet normal 0 0 1
    outer loop
      vertex -6.38906 -9.5619 28
      vertex -2.50007 -3.74161 28
      vertex -2.85477 -3.47855 28
    endloop
  endfacet
  facet normal 0 0 1
    outer loop
      vertex -7.29552 -8.88962 28
      vertex -2.85477 -3.47855 28
      vertex -3.18198 -3.18198 28
    endloop
  endfacet
  facet normal 0 0 1
    outer loop
      vertex -1.30628 -4.30623 28
      vertex -3.33827 -11.0048 28
      vertex -2.24354 -11.279 28
    endloop
  endfacet
  facet normal 0 0 1
    outer loop
      vertex -8.13173 -8.13173 28
      vertex -3.18198 -3.18198 28
      vertex -3.47855 -2.85477 28
    endloop
  endfacet
  facet normal 0 0 1
    outer loop
      vertex -8.88962 -7.29552 28
      vertex -3.47855 -2.85477 28
      vertex -3.74161 -2.50007 28
    endloop
  endfacet
  facet normal 0 0 1
    outer loop
      vertex -9.5619 -6.38906 28
      vertex -3.74161 -2.50007 28
      vertex -3.96865 -2.12128 28
    endloop
  endfacet
  facet normal 0 0 1
    outer loop
      vertex -10.1421 -5.42106 28
      vertex -3.96865 -2.12128 28
      vertex -4.15746 -1.72207 28
    endloop
  endfacet
  facet normal 0 0 1
    outer loop
      vertex -10.6246 -4.40086 28
      vertex -4.15746 -1.72207 28
      vertex -4.30623 -1.30628 28
    endloop
  endfacet
  facet normal 0 0 1
    outer loop
      vertex -1.72207 -4.15746 28
      vertex -4.40086 -10.6246 28
      vertex -3.33827 -11.0048 28
    endloop
  endfacet
  facet normal 0 0 1
    outer loop
      vertex -11.0048 -3.33827 28
      vertex -4.30623 -1.30628 28
      vertex -4.41353 -0.877906 28
    endloop
  endfacet
  facet normal 0 0 1
    outer loop
      vertex -11.279 -2.24354 28
      vertex -4.41353 -0.877906 28
      vertex -4.47833 -0.441076 28
    endloop
  endfacet
  facet normal 0 0 1
    outer loop
      vertex -11.4446 -1.1272 28
      vertex -4.47833 -0.441076 28
      vertex -4.5 0 28
    endloop
  endfacet
  facet normal -0 0 1
    outer loop
      vertex -10.1421 5.42106 28
      vertex -3.96865 2.12128 28
      vertex -9.5619 6.38906 28
    endloop
  endfacet
  facet normal 0 0 1
    outer loop
      vertex -2.12128 -3.96865 28
      vertex -5.42106 -10.1421 28
      vertex -4.40086 -10.6246 28
    endloop
  endfacet
  facet normal 0 0 1
    outer loop
      vertex -3.96865 2.12128 28
      vertex -10.1421 5.42106 28
      vertex -4.15746 1.72207 28
    endloop
  endfacet
  facet normal 0 0 1
    outer loop
      vertex -2.50007 -3.74161 28
      vertex -6.38906 -9.5619 28
      vertex -5.42106 -10.1421 28
    endloop
  endfacet
  facet normal -0 0 1
    outer loop
      vertex -10.6246 4.40086 28
      vertex -4.15746 1.72207 28
      vertex -10.1421 5.42106 28
    endloop
  endfacet
  facet normal 0 0 1
    outer loop
      vertex -2.85477 -3.47855 28
      vertex -7.29552 -8.88962 28
      vertex -6.38906 -9.5619 28
    endloop
  endfacet
  facet normal 0 0 1
    outer loop
      vertex -4.15746 1.72207 28
      vertex -10.6246 4.40086 28
      vertex -4.30623 1.30628 28
    endloop
  endfacet
  facet normal 0 0 1
    outer loop
      vertex -3.18198 -3.18198 28
      vertex -8.13173 -8.13173 28
      vertex -7.29552 -8.88962 28
    endloop
  endfacet
  facet normal -0 0 1
    outer loop
      vertex -11.0048 3.33827 28
      vertex -4.30623 1.30628 28
      vertex -10.6246 4.40086 28
    endloop
  endfacet
  facet normal 0 0 1
    outer loop
      vertex -3.47855 -2.85477 28
      vertex -8.88962 -7.29552 28
      vertex -8.13173 -8.13173 28
    endloop
  endfacet
  facet normal 0 0 1
    outer loop
      vertex -4.30623 1.30628 28
      vertex -11.0048 3.33827 28
      vertex -4.41353 0.877906 28
    endloop
  endfacet
  facet normal 0 0 1
    outer loop
      vertex -3.74161 -2.50007 28
      vertex -9.5619 -6.38906 28
      vertex -8.88962 -7.29552 28
    endloop
  endfacet
  facet normal -0 0 1
    outer loop
      vertex -11.279 2.24354 28
      vertex -4.41353 0.877906 28
      vertex -11.0048 3.33827 28
    endloop
  endfacet
  facet normal 0 0 1
    outer loop
      vertex -3.96865 -2.12128 28
      vertex -10.1421 -5.42106 28
      vertex -9.5619 -6.38906 28
    endloop
  endfacet
  facet normal 0 0 1
    outer loop
      vertex -4.41353 0.877906 28
      vertex -11.279 2.24354 28
      vertex -4.47833 0.441076 28
    endloop
  endfacet
  facet normal 0 0 1
    outer loop
      vertex -4.15746 -1.72207 28
      vertex -10.6246 -4.40086 28
      vertex -10.1421 -5.42106 28
    endloop
  endfacet
  facet normal -0 0 1
    outer loop
      vertex -11.4446 1.1272 28
      vertex -4.47833 0.441076 28
      vertex -11.279 2.24354 28
    endloop
  endfacet
  facet normal 0 0 1
    outer loop
      vertex -4.30623 -1.30628 28
      vertex -11.0048 -3.33827 28
      vertex -10.6246 -4.40086 28
    endloop
  endfacet
  facet normal 0 0 1
    outer loop
      vertex -4.47833 0.441076 28
      vertex -11.4446 1.1272 28
      vertex -4.5 0 28
    endloop
  endfacet
  facet normal 0 0 1
    outer loop
      vertex -4.41353 -0.877906 28
      vertex -11.279 -2.24354 28
      vertex -11.0048 -3.33827 28
    endloop
  endfacet
  facet normal 0 0 1
    outer loop
      vertex -11.5 0 28
      vertex -4.5 0 28
      vertex -11.4446 1.1272 28
    endloop
  endfacet
  facet normal 0 0 1
    outer loop
      vertex -4.47833 -0.441076 28
      vertex -11.4446 -1.1272 28
      vertex -11.279 -2.24354 28
    endloop
  endfacet
  facet normal 0 0 1
    outer loop
      vertex -4.5 0 28
      vertex -11.5 0 28
      vertex -11.4446 -1.1272 28
    endloop
  endfacet
  facet normal -0.897454 0.2248 0.379527
    outer loop
      vertex -22.5581 4.48708 0
      vertex -11.0048 3.33827 28
      vertex -22.0096 6.67655 0
    endloop
  endfacet
  facet normal -0.897454 0.2248 0.379527
    outer loop
      vertex -11.0048 3.33827 28
      vertex -22.5581 4.48708 0
      vertex -11.279 2.24354 28
    endloop
  endfacet
  facet normal -0.793554 -0.475638 0.379527
    outer loop
      vertex -10.1421 -5.42106 28
      vertex -20.2842 -10.8421 0
      vertex -9.5619 -6.38906 28
    endloop
  endfacet
  facet normal 0 0 -1
    outer loop
      vertex 4.5 0 0
      vertex 23 0 0
      vertex 22.8892 -2.25439 0
    endloop
  endfacet
  facet normal 0 0 -1
    outer loop
      vertex 4.47833 -0.441076 0
      vertex 22.8892 -2.25439 0
      vertex 22.5581 -4.48708 0
    endloop
  endfacet
  facet normal 0 0 -1
    outer loop
      vertex 23 0 0
      vertex 4.5 0 0
      vertex 22.8892 2.25439 0
    endloop
  endfacet
  facet normal 0 0 -1
    outer loop
      vertex 4.41353 -0.877906 0
      vertex 22.5581 -4.48708 0
      vertex 22.0096 -6.67655 0
    endloop
  endfacet
  facet normal 0 0 -1
    outer loop
      vertex 4.47833 0.441076 0
      vertex 22.8892 2.25439 0
      vertex 4.5 0 0
    endloop
  endfacet
  facet normal 0 0 -1
    outer loop
      vertex 4.30623 -1.30628 0
      vertex 22.0096 -6.67655 0
      vertex 21.2492 -8.80172 0
    endloop
  endfacet
  facet normal -0 0 -1
    outer loop
      vertex 22.8892 2.25439 0
      vertex 4.47833 0.441076 0
      vertex 22.5581 4.48708 0
    endloop
  endfacet
  facet normal 0 0 -1
    outer loop
      vertex 4.15746 -1.72207 0
      vertex 21.2492 -8.80172 0
      vertex 20.2842 -10.8421 0
    endloop
  endfacet
  facet normal 0 0 -1
    outer loop
      vertex 4.41353 0.877906 0
      vertex 22.5581 4.48708 0
      vertex 4.47833 0.441076 0
    endloop
  endfacet
  facet normal 0 0 -1
    outer loop
      vertex 3.96865 -2.12128 0
      vertex 20.2842 -10.8421 0
      vertex 19.1238 -12.7781 0
    endloop
  endfacet
  facet normal -0 0 -1
    outer loop
      vertex 22.5581 4.48708 0
      vertex 4.41353 0.877906 0
      vertex 22.0096 6.67655 0
    endloop
  endfacet
  facet normal 0 0 -1
    outer loop
      vertex 3.74161 -2.50007 0
      vertex 19.1238 -12.7781 0
      vertex 17.7792 -14.591 0
    endloop
  endfacet
  facet normal 0 0 -1
    outer loop
      vertex 4.30623 1.30628 0
      vertex 22.0096 6.67655 0
      vertex 4.41353 0.877906 0
    endloop
  endfacet
  facet normal 0 0 -1
    outer loop
      vertex 3.47855 -2.85477 0
      vertex 17.7792 -14.591 0
      vertex 16.2635 -16.2635 0
    endloop
  endfacet
  facet normal -0 0 -1
    outer loop
      vertex 22.0096 6.67655 0
      vertex 4.30623 1.30628 0
      vertex 21.2492 8.80172 0
    endloop
  endfacet
  facet normal 0 0 -1
    outer loop
      vertex 3.18198 -3.18198 0
      vertex 16.2635 -16.2635 0
      vertex 14.591 -17.7792 0
    endloop
  endfacet
  facet normal 0 0 -1
    outer loop
      vertex 4.15746 1.72207 0
      vertex 21.2492 8.80172 0
      vertex 4.30623 1.30628 0
    endloop
  endfacet
  facet normal 0 0 -1
    outer loop
      vertex 2.85477 -3.47855 0
      vertex 14.591 -17.7792 0
      vertex 12.7781 -19.1238 0
    endloop
  endfacet
  facet normal -0 0 -1
    outer loop
      vertex 21.2492 8.80172 0
      vertex 4.15746 1.72207 0
      vertex 20.2842 10.8421 0
    endloop
  endfacet
  facet normal 0 0 -1
    outer loop
      vertex 2.50007 -3.74161 0
      vertex 12.7781 -19.1238 0
      vertex 10.8421 -20.2842 0
    endloop
  endfacet
  facet normal 0 0 -1
    outer loop
      vertex 3.96865 2.12128 0
      vertex 20.2842 10.8421 0
      vertex 4.15746 1.72207 0
    endloop
  endfacet
  facet normal 0 0 -1
    outer loop
      vertex 2.12128 -3.96865 0
      vertex 10.8421 -20.2842 0
      vertex 8.80172 -21.2492 0
    endloop
  endfacet
  facet normal -0 0 -1
    outer loop
      vertex 20.2842 10.8421 0
      vertex 3.96865 2.12128 0
      vertex 19.1238 12.7781 0
    endloop
  endfacet
  facet normal 0 0 -1
    outer loop
      vertex 1.72207 -4.15746 0
      vertex 8.80172 -21.2492 0
      vertex 6.67655 -22.0096 0
    endloop
  endfacet
  facet normal 0 0 -1
    outer loop
      vertex 3.74161 2.50007 0
      vertex 19.1238 12.7781 0
      vertex 3.96865 2.12128 0
    endloop
  endfacet
  facet normal -0 0 -1
    outer loop
      vertex 19.1238 12.7781 0
      vertex 3.74161 2.50007 0
      vertex 17.7792 14.591 0
    endloop
  endfacet
  facet normal 0 0 -1
    outer loop
      vertex 1.30628 -4.30623 0
      vertex 6.67655 -22.0096 0
      vertex 4.48708 -22.5581 0
    endloop
  endfacet
  facet normal 0 0 -1
    outer loop
      vertex 22.8892 -2.25439 0
      vertex 4.47833 -0.441076 0
      vertex 4.5 0 0
    endloop
  endfacet
  facet normal 0 0 -1
    outer loop
      vertex 22.5581 -4.48708 0
      vertex 4.41353 -0.877906 0
      vertex 4.47833 -0.441076 0
    endloop
  endfacet
  facet normal 0 0 -1
    outer loop
      vertex 22.0096 -6.67655 0
      vertex 4.30623 -1.30628 0
      vertex 4.41353 -0.877906 0
    endloop
  endfacet
  facet normal 0 0 -1
    outer loop
      vertex 21.2492 -8.80172 0
      vertex 4.15746 -1.72207 0
      vertex 4.30623 -1.30628 0
    endloop
  endfacet
  facet normal 0 0 -1
    outer loop
      vertex 20.2842 -10.8421 0
      vertex 3.96865 -2.12128 0
      vertex 4.15746 -1.72207 0
    endloop
  endfacet
  facet normal 0 0 -1
    outer loop
      vertex 19.1238 -12.7781 0
      vertex 3.74161 -2.50007 0
      vertex 3.96865 -2.12128 0
    endloop
  endfacet
  facet normal 0 0 -1
    outer loop
      vertex 17.7792 -14.591 0
      vertex 3.47855 -2.85477 0
      vertex 3.74161 -2.50007 0
    endloop
  endfacet
  facet normal 0 0 -1
    outer loop
      vertex 16.2635 -16.2635 0
      vertex 3.18198 -3.18198 0
      vertex 3.47855 -2.85477 0
    endloop
  endfacet
  facet normal 0 0 -1
    outer loop
      vertex 14.591 -17.7792 0
      vertex 2.85477 -3.47855 0
      vertex 3.18198 -3.18198 0
    endloop
  endfacet
  facet normal 0 0 -1
    outer loop
      vertex 12.7781 -19.1238 0
      vertex 2.50007 -3.74161 0
      vertex 2.85477 -3.47855 0
    endloop
  endfacet
  facet normal 0 0 -1
    outer loop
      vertex 0.877906 -4.41353 0
      vertex 4.48708 -22.5581 0
      vertex 2.25439 -22.8892 0
    endloop
  endfacet
  facet normal 0 0 -1
    outer loop
      vertex 10.8421 -20.2842 0
      vertex 2.12128 -3.96865 0
      vertex 2.50007 -3.74161 0
    endloop
  endfacet
  facet normal 0 0 -1
    outer loop
      vertex 8.80172 -21.2492 0
      vertex 1.72207 -4.15746 0
      vertex 2.12128 -3.96865 0
    endloop
  endfacet
  facet normal 0 0 -1
    outer loop
      vertex 6.67655 -22.0096 0
      vertex 1.30628 -4.30623 0
      vertex 1.72207 -4.15746 0
    endloop
  endfacet
  facet normal 0 0 -1
    outer loop
      vertex 4.48708 -22.5581 0
      vertex 0.877906 -4.41353 0
      vertex 1.30628 -4.30623 0
    endloop
  endfacet
  facet normal 0 0 -1
    outer loop
      vertex 2.25439 -22.8892 0
      vertex 0.441076 -4.47833 0
      vertex 0.877906 -4.41353 0
    endloop
  endfacet
  facet normal 0 0 -1
    outer loop
      vertex 0 -23 0
      vertex 0.441076 -4.47833 0
      vertex 2.25439 -22.8892 0
    endloop
  endfacet
  facet normal 0 0 -1
    outer loop
      vertex 0 -23 0
      vertex 0 -4.5 0
      vertex 0.441076 -4.47833 0
    endloop
  endfacet
  facet normal 0 0 -1
    outer loop
      vertex 0 -23 0
      vertex -0.441076 -4.47833 0
      vertex 0 -4.5 0
    endloop
  endfacet
  facet normal 0 0 -1
    outer loop
      vertex -2.25439 -22.8892 0
      vertex -0.441076 -4.47833 0
      vertex 0 -23 0
    endloop
  endfacet
  facet normal -0 0 -1
    outer loop
      vertex -0.441076 -4.47833 0
      vertex -2.25439 -22.8892 0
      vertex -0.877906 -4.41353 0
    endloop
  endfacet
  facet normal 0 0 -1
    outer loop
      vertex -4.48708 -22.5581 0
      vertex -0.877906 -4.41353 0
      vertex -2.25439 -22.8892 0
    endloop
  endfacet
  facet normal -0 0 -1
    outer loop
      vertex -0.877906 -4.41353 0
      vertex -4.48708 -22.5581 0
      vertex -1.30628 -4.30623 0
    endloop
  endfacet
  facet normal 0 0 -1
    outer loop
      vertex -6.67655 -22.0096 0
      vertex -1.30628 -4.30623 0
      vertex -4.48708 -22.5581 0
    endloop
  endfacet
  facet normal -0 0 -1
    outer loop
      vertex -1.30628 -4.30623 0
      vertex -6.67655 -22.0096 0
      vertex -1.72207 -4.15746 0
    endloop
  endfacet
  facet normal 0 0 -1
    outer loop
      vertex -8.80172 -21.2492 0
      vertex -1.72207 -4.15746 0
      vertex -6.67655 -22.0096 0
    endloop
  endfacet
  facet normal -0 0 -1
    outer loop
      vertex -1.72207 -4.15746 0
      vertex -8.80172 -21.2492 0
      vertex -2.12128 -3.96865 0
    endloop
  endfacet
  facet normal 0 0 -1
    outer loop
      vertex -10.8421 -20.2842 0
      vertex -2.12128 -3.96865 0
      vertex -8.80172 -21.2492 0
    endloop
  endfacet
  facet normal -0 0 -1
    outer loop
      vertex -2.12128 -3.96865 0
      vertex -10.8421 -20.2842 0
      vertex -2.50007 -3.74161 0
    endloop
  endfacet
  facet normal 0 0 -1
    outer loop
      vertex -12.7781 -19.1238 0
      vertex -2.50007 -3.74161 0
      vertex -10.8421 -20.2842 0
    endloop
  endfacet
  facet normal -0 0 -1
    outer loop
      vertex -2.50007 -3.74161 0
      vertex -12.7781 -19.1238 0
      vertex -2.85477 -3.47855 0
    endloop
  endfacet
  facet normal 0 0 -1
    outer loop
      vertex -14.591 -17.7792 0
      vertex -2.85477 -3.47855 0
      vertex -12.7781 -19.1238 0
    endloop
  endfacet
  facet normal -0 0 -1
    outer loop
      vertex -2.85477 -3.47855 0
      vertex -14.591 -17.7792 0
      vertex -3.18198 -3.18198 0
    endloop
  endfacet
  facet normal 0 0 -1
    outer loop
      vertex -16.2635 -16.2635 0
      vertex -3.18198 -3.18198 0
      vertex -14.591 -17.7792 0
    endloop
  endfacet
  facet normal -0 0 -1
    outer loop
      vertex -3.18198 -3.18198 0
      vertex -16.2635 -16.2635 0
      vertex -3.47855 -2.85477 0
    endloop
  endfacet
  facet normal 0 0 -1
    outer loop
      vertex -17.7792 -14.591 0
      vertex -3.47855 -2.85477 0
      vertex -16.2635 -16.2635 0
    endloop
  endfacet
  facet normal -0 0 -1
    outer loop
      vertex -3.47855 -2.85477 0
      vertex -17.7792 -14.591 0
      vertex -3.74161 -2.50007 0
    endloop
  endfacet
  facet normal 0 0 -1
    outer loop
      vertex 3.47855 2.85477 0
      vertex 17.7792 14.591 0
      vertex 3.74161 2.50007 0
    endloop
  endfacet
  facet normal -0 0 -1
    outer loop
      vertex 17.7792 14.591 0
      vertex 3.47855 2.85477 0
      vertex 16.2635 16.2635 0
    endloop
  endfacet
  facet normal 0 0 -1
    outer loop
      vertex 3.18198 3.18198 0
      vertex 16.2635 16.2635 0
      vertex 3.47855 2.85477 0
    endloop
  endfacet
  facet normal -0 0 -1
    outer loop
      vertex 16.2635 16.2635 0
      vertex 3.18198 3.18198 0
      vertex 14.591 17.7792 0
    endloop
  endfacet
  facet normal 0 0 -1
    outer loop
      vertex 2.85477 3.47855 0
      vertex 14.591 17.7792 0
      vertex 3.18198 3.18198 0
    endloop
  endfacet
  facet normal -0 0 -1
    outer loop
      vertex 14.591 17.7792 0
      vertex 2.85477 3.47855 0
      vertex 12.7781 19.1238 0
    endloop
  endfacet
  facet normal 0 0 -1
    outer loop
      vertex 2.50007 3.74161 0
      vertex 12.7781 19.1238 0
      vertex 2.85477 3.47855 0
    endloop
  endfacet
  facet normal -0 0 -1
    outer loop
      vertex 12.7781 19.1238 0
      vertex 2.50007 3.74161 0
      vertex 10.8421 20.2842 0
    endloop
  endfacet
  facet normal 0 0 -1
    outer loop
      vertex 2.12128 3.96865 0
      vertex 10.8421 20.2842 0
      vertex 2.50007 3.74161 0
    endloop
  endfacet
  facet normal -0 0 -1
    outer loop
      vertex 10.8421 20.2842 0
      vertex 2.12128 3.96865 0
      vertex 8.80172 21.2492 0
    endloop
  endfacet
  facet normal 0 0 -1
    outer loop
      vertex 1.72207 4.15746 0
      vertex 8.80172 21.2492 0
      vertex 2.12128 3.96865 0
    endloop
  endfacet
  facet normal -0 0 -1
    outer loop
      vertex 8.80172 21.2492 0
      vertex 1.72207 4.15746 0
      vertex 6.67655 22.0096 0
    endloop
  endfacet
  facet normal 0 0 -1
    outer loop
      vertex 1.30628 4.30623 0
      vertex 6.67655 22.0096 0
      vertex 1.72207 4.15746 0
    endloop
  endfacet
  facet normal -0 0 -1
    outer loop
      vertex 6.67655 22.0096 0
      vertex 1.30628 4.30623 0
      vertex 4.48708 22.5581 0
    endloop
  endfacet
  facet normal 0 0 -1
    outer loop
      vertex 0.877906 4.41353 0
      vertex 4.48708 22.5581 0
      vertex 1.30628 4.30623 0
    endloop
  endfacet
  facet normal -0 0 -1
    outer loop
      vertex 4.48708 22.5581 0
      vertex 0.877906 4.41353 0
      vertex 2.25439 22.8892 0
    endloop
  endfacet
  facet normal 0 0 -1
    outer loop
      vertex 0.441076 4.47833 0
      vertex 2.25439 22.8892 0
      vertex 0.877906 4.41353 0
    endloop
  endfacet
  facet normal 0 0 -1
    outer loop
      vertex 0 4.5 0
      vertex 2.25439 22.8892 0
      vertex 0.441076 4.47833 0
    endloop
  endfacet
  facet normal 0 0 -1
    outer loop
      vertex 0 4.5 0
      vertex 0 23 0
      vertex 2.25439 22.8892 0
    endloop
  endfacet
  facet normal 0 0 -1
    outer loop
      vertex -0.441076 4.47833 0
      vertex 0 23 0
      vertex 0 4.5 0
    endloop
  endfacet
  facet normal 0 0 -1
    outer loop
      vertex -2.25439 22.8892 0
      vertex -0.441076 4.47833 0
      vertex -0.877906 4.41353 0
    endloop
  endfacet
  facet normal 0 0 -1
    outer loop
      vertex -4.48708 22.5581 0
      vertex -0.877906 4.41353 0
      vertex -1.30628 4.30623 0
    endloop
  endfacet
  facet normal 0 0 -1
    outer loop
      vertex -6.67655 22.0096 0
      vertex -1.30628 4.30623 0
      vertex -1.72207 4.15746 0
    endloop
  endfacet
  facet normal 0 0 -1
    outer loop
      vertex -8.80172 21.2492 0
      vertex -1.72207 4.15746 0
      vertex -2.12128 3.96865 0
    endloop
  endfacet
  facet normal 0 0 -1
    outer loop
      vertex -0.441076 4.47833 0
      vertex -2.25439 22.8892 0
      vertex 0 23 0
    endloop
  endfacet
  facet normal 0 0 -1
    outer loop
      vertex -10.8421 20.2842 0
      vertex -2.12128 3.96865 0
      vertex -2.50007 3.74161 0
    endloop
  endfacet
  facet normal 0 0 -1
    outer loop
      vertex -12.7781 19.1238 0
      vertex -2.50007 3.74161 0
      vertex -2.85477 3.47855 0
    endloop
  endfacet
  facet normal 0 0 -1
    outer loop
      vertex -14.591 17.7792 0
      vertex -2.85477 3.47855 0
      vertex -3.18198 3.18198 0
    endloop
  endfacet
  facet normal 0 0 -1
    outer loop
      vertex -16.2635 16.2635 0
      vertex -3.18198 3.18198 0
      vertex -3.47855 2.85477 0
    endloop
  endfacet
  facet normal 0 0 -1
    outer loop
      vertex -17.7792 14.591 0
      vertex -3.47855 2.85477 0
      vertex -3.74161 2.50007 0
    endloop
  endfacet
  facet normal 0 0 -1
    outer loop
      vertex -19.1238 12.7781 0
      vertex -3.74161 2.50007 0
      vertex -3.96865 2.12128 0
    endloop
  endfacet
  facet normal 0 0 -1
    outer loop
      vertex -20.2842 10.8421 0
      vertex -3.96865 2.12128 0
      vertex -4.15746 1.72207 0
    endloop
  endfacet
  facet normal 0 0 -1
    outer loop
      vertex -21.2492 8.80172 0
      vertex -4.15746 1.72207 0
      vertex -4.30623 1.30628 0
    endloop
  endfacet
  facet normal 0 0 -1
    outer loop
      vertex -22.0096 6.67655 0
      vertex -4.30623 1.30628 0
      vertex -4.41353 0.877906 0
    endloop
  endfacet
  facet normal 0 0 -1
    outer loop
      vertex -22.5581 4.48708 0
      vertex -4.41353 0.877906 0
      vertex -4.47833 0.441076 0
    endloop
  endfacet
  facet normal 0 0 -1
    outer loop
      vertex -0.877906 4.41353 0
      vertex -4.48708 22.5581 0
      vertex -2.25439 22.8892 0
    endloop
  endfacet
  facet normal 0 0 -1
    outer loop
      vertex -22.8892 2.25439 0
      vertex -4.47833 0.441076 0
      vertex -4.5 0 0
    endloop
  endfacet
  facet normal 0 0 -1
    outer loop
      vertex -19.1238 -12.7781 0
      vertex -3.74161 -2.50007 0
      vertex -17.7792 -14.591 0
    endloop
  endfacet
  facet normal 0 0 -1
    outer loop
      vertex -1.30628 4.30623 0
      vertex -6.67655 22.0096 0
      vertex -4.48708 22.5581 0
    endloop
  endfacet
  facet normal -0 0 -1
    outer loop
      vertex -3.74161 -2.50007 0
      vertex -19.1238 -12.7781 0
      vertex -3.96865 -2.12128 0
    endloop
  endfacet
  facet normal 0 0 -1
    outer loop
      vertex -1.72207 4.15746 0
      vertex -8.80172 21.2492 0
      vertex -6.67655 22.0096 0
    endloop
  endfacet
  facet normal 0 0 -1
    outer loop
      vertex -20.2842 -10.8421 0
      vertex -3.96865 -2.12128 0
      vertex -19.1238 -12.7781 0
    endloop
  endfacet
  facet normal 0 0 -1
    outer loop
      vertex -2.12128 3.96865 0
      vertex -10.8421 20.2842 0
      vertex -8.80172 21.2492 0
    endloop
  endfacet
  facet normal -0 0 -1
    outer loop
      vertex -3.96865 -2.12128 0
      vertex -20.2842 -10.8421 0
      vertex -4.15746 -1.72207 0
    endloop
  endfacet
  facet normal 0 0 -1
    outer loop
      vertex -2.50007 3.74161 0
      vertex -12.7781 19.1238 0
      vertex -10.8421 20.2842 0
    endloop
  endfacet
  facet normal 0 0 -1
    outer loop
      vertex -21.2492 -8.80172 0
      vertex -4.15746 -1.72207 0
      vertex -20.2842 -10.8421 0
    endloop
  endfacet
  facet normal 0 0 -1
    outer loop
      vertex -2.85477 3.47855 0
      vertex -14.591 17.7792 0
      vertex -12.7781 19.1238 0
    endloop
  endfacet
  facet normal -0 0 -1
    outer loop
      vertex -4.15746 -1.72207 0
      vertex -21.2492 -8.80172 0
      vertex -4.30623 -1.30628 0
    endloop
  endfacet
  facet normal 0 0 -1
    outer loop
      vertex -3.18198 3.18198 0
      vertex -16.2635 16.2635 0
      vertex -14.591 17.7792 0
    endloop
  endfacet
  facet normal 0 0 -1
    outer loop
      vertex -22.0096 -6.67655 0
      vertex -4.30623 -1.30628 0
      vertex -21.2492 -8.80172 0
    endloop
  endfacet
  facet normal 0 0 -1
    outer loop
      vertex -3.47855 2.85477 0
      vertex -17.7792 14.591 0
      vertex -16.2635 16.2635 0
    endloop
  endfacet
  facet normal -0 0 -1
    outer loop
      vertex -4.30623 -1.30628 0
      vertex -22.0096 -6.67655 0
      vertex -4.41353 -0.877906 0
    endloop
  endfacet
  facet normal 0 0 -1
    outer loop
      vertex -3.74161 2.50007 0
      vertex -19.1238 12.7781 0
      vertex -17.7792 14.591 0
    endloop
  endfacet
  facet normal 0 0 -1
    outer loop
      vertex -22.5581 -4.48708 0
      vertex -4.41353 -0.877906 0
      vertex -22.0096 -6.67655 0
    endloop
  endfacet
  facet normal 0 0 -1
    outer loop
      vertex -3.96865 2.12128 0
      vertex -20.2842 10.8421 0
      vertex -19.1238 12.7781 0
    endloop
  endfacet
  facet normal -0 0 -1
    outer loop
      vertex -4.41353 -0.877906 0
      vertex -22.5581 -4.48708 0
      vertex -4.47833 -0.441076 0
    endloop
  endfacet
  facet normal 0 0 -1
    outer loop
      vertex -4.15746 1.72207 0
      vertex -21.2492 8.80172 0
      vertex -20.2842 10.8421 0
    endloop
  endfacet
  facet normal 0 0 -1
    outer loop
      vertex -22.8892 -2.25439 0
      vertex -4.47833 -0.441076 0
      vertex -22.5581 -4.48708 0
    endloop
  endfacet
  facet normal 0 0 -1
    outer loop
      vertex -4.30623 1.30628 0
      vertex -22.0096 6.67655 0
      vertex -21.2492 8.80172 0
    endloop
  endfacet
  facet normal -0 0 -1
    outer loop
      vertex -4.47833 -0.441076 0
      vertex -22.8892 -2.25439 0
      vertex -4.5 0 0
    endloop
  endfacet
  facet normal 0 0 -1
    outer loop
      vertex -4.41353 0.877906 0
      vertex -22.5581 4.48708 0
      vertex -22.0096 6.67655 0
    endloop
  endfacet
  facet normal 0 0 -1
    outer loop
      vertex -23 0 0
      vertex -4.5 0 0
      vertex -22.8892 -2.25439 0
    endloop
  endfacet
  facet normal 0 0 -1
    outer loop
      vertex -4.47833 0.441076 0
      vertex -22.8892 2.25439 0
      vertex -22.5581 4.48708 0
    endloop
  endfacet
  facet normal 0 0 -1
    outer loop
      vertex -4.5 0 0
      vertex -23 0 0
      vertex -22.8892 2.25439 0
    endloop
  endfacet
  facet normal 0.311684 0.871098 0.379527
    outer loop
      vertex 6.67655 22.0096 0
      vertex 4.40086 10.6246 28
      vertex 8.80172 21.2492 0
    endloop
  endfacet
  facet normal 0.311684 0.871098 0.379527
    outer loop
      vertex 4.40086 10.6246 28
      vertex 6.67655 22.0096 0
      vertex 3.33827 11.0048 28
    endloop
  endfacet
  facet normal 0.551129 0.743112 0.379527
    outer loop
      vertex 12.7781 19.1238 0
      vertex 7.29552 8.88962 28
      vertex 14.591 17.7792 0
    endloop
  endfacet
  facet normal 0.685513 0.621314 0.379527
    outer loop
      vertex 16.2635 16.2635 0
      vertex 8.88962 7.29552 28
      vertex 17.7792 14.591 0
    endloop
  endfacet
  facet normal 0.743112 0.551129 0.379527
    outer loop
      vertex 17.7792 14.591 0
      vertex 8.88962 7.29552 28
      vertex 19.1238 12.7781 0
    endloop
  endfacet
  facet normal 0.871098 0.311684 0.379527
    outer loop
      vertex 10.6246 4.40086 28
      vertex 22.0096 6.67655 0
      vertex 21.2492 8.80172 0
    endloop
  endfacet
  facet normal 0.871098 0.311684 0.379527
    outer loop
      vertex 22.0096 6.67655 0
      vertex 10.6246 4.40086 28
      vertex 11.0048 3.33827 28
    endloop
  endfacet
  facet normal 0.836353 0.395565 0.379527
    outer loop
      vertex 21.2492 8.80172 0
      vertex 10.1421 5.42106 28
      vertex 10.6246 4.40086 28
    endloop
  endfacet
  facet normal 0.836353 0.395566 0.379527
    outer loop
      vertex 20.2842 10.8421 0
      vertex 10.1421 5.42106 28
      vertex 21.2492 8.80172 0
    endloop
  endfacet
  facet normal 0.915167 0.135753 0.379527
    outer loop
      vertex 22.5581 4.48708 0
      vertex 11.279 2.24354 28
      vertex 11.4446 1.1272 28
    endloop
  endfacet
  facet normal 0.0453968 -0.924066 0.379527
    outer loop
      vertex 0 -11.5 28
      vertex 0 -23 0
      vertex 2.25439 -22.8892 0
    endloop
  endfacet
  facet normal 0.395566 -0.836353 0.379527
    outer loop
      vertex 10.8421 -20.2842 0
      vertex 5.42106 -10.1421 28
      vertex 8.80172 -21.2492 0
    endloop
  endfacet
  facet normal 0.475638 -0.793554 0.379527
    outer loop
      vertex 12.7781 -19.1238 0
      vertex 6.38906 -9.5619 28
      vertex 10.8421 -20.2842 0
    endloop
  endfacet
  facet normal 0.475638 -0.793554 0.379527
    outer loop
      vertex 6.38906 -9.5619 28
      vertex 5.42106 -10.1421 28
      vertex 10.8421 -20.2842 0
    endloop
  endfacet
  facet normal 0.621314 -0.685513 0.379527
    outer loop
      vertex 16.2635 -16.2635 0
      vertex 7.29552 -8.88962 28
      vertex 14.591 -17.7792 0
    endloop
  endfacet
  facet normal 0.743112 -0.551129 0.379527
    outer loop
      vertex 19.1238 -12.7781 0
      vertex 8.88962 -7.29552 28
      vertex 17.7792 -14.591 0
    endloop
  endfacet
  facet normal 0.743112 -0.551129 0.379527
    outer loop
      vertex 9.5619 -6.38906 28
      vertex 8.88962 -7.29552 28
      vertex 19.1238 -12.7781 0
    endloop
  endfacet
  facet normal 0.793554 -0.475638 0.379527
    outer loop
      vertex 20.2842 -10.8421 0
      vertex 9.5619 -6.38906 28
      vertex 19.1238 -12.7781 0
    endloop
  endfacet
  facet normal -0.311684 0.871098 0.379527
    outer loop
      vertex -6.67655 22.0096 0
      vertex -4.40086 10.6246 28
      vertex -3.33827 11.0048 28
    endloop
  endfacet
  facet normal -0.311684 0.871098 0.379527
    outer loop
      vertex -4.40086 10.6246 28
      vertex -6.67655 22.0096 0
      vertex -8.80172 21.2492 0
    endloop
  endfacet
  facet normal -0.2248 0.897454 0.379527
    outer loop
      vertex -4.48708 22.5581 0
      vertex -3.33827 11.0048 28
      vertex -2.24354 11.279 28
    endloop
  endfacet
  facet normal -0.2248 0.897454 0.379527
    outer loop
      vertex -3.33827 11.0048 28
      vertex -4.48708 22.5581 0
      vertex -6.67655 22.0096 0
    endloop
  endfacet
  facet normal -0.395565 0.836353 0.379527
    outer loop
      vertex -4.40086 10.6246 28
      vertex -8.80172 21.2492 0
      vertex -5.42106 10.1421 28
    endloop
  endfacet
  facet normal -0.475638 0.793554 0.379527
    outer loop
      vertex -10.8421 20.2842 0
      vertex -12.7781 19.1238 0
      vertex -6.38906 9.5619 28
    endloop
  endfacet
  facet normal -0.621314 0.685513 0.379527
    outer loop
      vertex -14.591 17.7792 0
      vertex -16.2635 16.2635 0
      vertex -7.29552 8.88962 28
    endloop
  endfacet
  facet normal -0.621314 0.685513 0.379527
    outer loop
      vertex -7.29552 8.88962 28
      vertex -16.2635 16.2635 0
      vertex -8.13173 8.13173 28
    endloop
  endfacet
  facet normal -0.0453968 0.924066 0.379527
    outer loop
      vertex 0 23 0
      vertex -2.25439 22.8892 0
      vertex 0 11.5 28
    endloop
  endfacet
  facet normal -0.135753 0.915167 0.379527
    outer loop
      vertex -1.1272 11.4446 28
      vertex -4.48708 22.5581 0
      vertex -2.24354 11.279 28
    endloop
  endfacet
  facet normal 0.2248 0.897454 0.379527
    outer loop
      vertex 4.48708 22.5581 0
      vertex 3.33827 11.0048 28
      vertex 6.67655 22.0096 0
    endloop
  endfacet
  facet normal 0.2248 0.897454 0.379527
    outer loop
      vertex 3.33827 11.0048 28
      vertex 4.48708 22.5581 0
      vertex 2.24354 11.279 28
    endloop
  endfacet
  facet normal 0.0453968 0.924066 0.379527
    outer loop
      vertex 2.25439 22.8892 0
      vertex 0 11.5 28
      vertex 1.1272 11.4446 28
    endloop
  endfacet
  facet normal -0.743112 0.551129 0.379527
    outer loop
      vertex -8.88962 7.29552 28
      vertex -19.1238 12.7781 0
      vertex -9.5619 6.38906 28
    endloop
  endfacet
  facet normal -0.793554 0.475638 0.379527
    outer loop
      vertex -9.5619 6.38906 28
      vertex -20.2842 10.8421 0
      vertex -10.1421 5.42106 28
    endloop
  endfacet
  facet normal -0.836353 0.395566 0.379527
    outer loop
      vertex -20.2842 10.8421 0
      vertex -21.2492 8.80172 0
      vertex -10.1421 5.42106 28
    endloop
  endfacet
  facet normal -0.915167 0.135753 0.379527
    outer loop
      vertex -11.279 2.24354 28
      vertex -22.5581 4.48708 0
      vertex -11.4446 1.1272 28
    endloop
  endfacet
  facet normal -0.915167 0.135753 0.379527
    outer loop
      vertex -22.5581 4.48708 0
      vertex -22.8892 2.25439 0
      vertex -11.4446 1.1272 28
    endloop
  endfacet
  facet normal -0.551129 -0.743112 0.379527
    outer loop
      vertex -7.29552 -8.88962 28
      vertex -14.591 -17.7792 0
      vertex -12.7781 -19.1238 0
    endloop
  endfacet
  facet normal -0.621314 -0.685513 0.379527
    outer loop
      vertex -7.29552 -8.88962 28
      vertex -16.2635 -16.2635 0
      vertex -14.591 -17.7792 0
    endloop
  endfacet
  facet normal -0.743112 -0.551129 0.379527
    outer loop
      vertex -8.88962 -7.29552 28
      vertex -19.1238 -12.7781 0
      vertex -17.7792 -14.591 0
    endloop
  endfacet
  facet normal -0.836353 -0.395565 0.379527
    outer loop
      vertex -10.6246 -4.40086 28
      vertex -21.2492 -8.80172 0
      vertex -10.1421 -5.42106 28
    endloop
  endfacet
  facet normal -0.685513 -0.621314 0.379527
    outer loop
      vertex -8.88962 -7.29552 28
      vertex -17.7792 -14.591 0
      vertex -16.2635 -16.2635 0
    endloop
  endfacet
  facet normal -0.685513 -0.621314 0.379527
    outer loop
      vertex -8.88962 -7.29552 28
      vertex -16.2635 -16.2635 0
      vertex -8.13173 -8.13173 28
    endloop
  endfacet
  facet normal -0.871098 -0.311684 0.379527
    outer loop
      vertex -22.0096 -6.67655 0
      vertex -10.6246 -4.40086 28
      vertex -11.0048 -3.33827 28
    endloop
  endfacet
  facet normal -0.871098 -0.311684 0.379527
    outer loop
      vertex -10.6246 -4.40086 28
      vertex -22.0096 -6.67655 0
      vertex -21.2492 -8.80172 0
    endloop
  endfacet
  facet normal -0.897454 -0.2248 0.379527
    outer loop
      vertex -22.5581 -4.48708 0
      vertex -11.0048 -3.33827 28
      vertex -11.279 -2.24354 28
    endloop
  endfacet
  facet normal -0.897454 -0.2248 0.379527
    outer loop
      vertex -11.0048 -3.33827 28
      vertex -22.5581 -4.48708 0
      vertex -22.0096 -6.67655 0
    endloop
  endfacet
  facet normal -0.924066 -0.0453968 0.379527
    outer loop
      vertex -11.5 0 28
      vertex -23 0 0
      vertex -22.8892 -2.25439 0
    endloop
  endfacet
  facet normal 0.475638 0.793554 0.379527
    outer loop
      vertex 10.8421 20.2842 0
      vertex 6.38906 9.5619 28
      vertex 12.7781 19.1238 0
    endloop
  endfacet
  facet normal 0.551129 0.743112 0.379527
    outer loop
      vertex 12.7781 19.1238 0
      vertex 6.38906 9.5619 28
      vertex 7.29552 8.88962 28
    endloop
  endfacet
  facet normal 0.395566 0.836353 0.379527
    outer loop
      vertex 8.80172 21.2492 0
      vertex 5.42106 10.1421 28
      vertex 10.8421 20.2842 0
    endloop
  endfacet
  facet normal 0.621314 0.685513 0.379527
    outer loop
      vertex 14.591 17.7792 0
      vertex 7.29552 8.88962 28
      vertex 16.2635 16.2635 0
    endloop
  endfacet
  facet normal 0.793554 0.475638 0.379527
    outer loop
      vertex 20.2842 10.8421 0
      vertex 9.5619 6.38906 28
      vertex 10.1421 5.42106 28
    endloop
  endfacet
  facet normal 0.924066 0.0453968 0.379527
    outer loop
      vertex 22.8892 2.25439 0
      vertex 11.4446 1.1272 28
      vertex 11.5 0 28
    endloop
  endfacet
  facet normal 0.135753 -0.915167 0.379527
    outer loop
      vertex 4.48708 -22.5581 0
      vertex 1.1272 -11.4446 28
      vertex 2.25439 -22.8892 0
    endloop
  endfacet
  facet normal 0.0453968 -0.924066 0.379527
    outer loop
      vertex 1.1272 -11.4446 28
      vertex 0 -11.5 28
      vertex 2.25439 -22.8892 0
    endloop
  endfacet
  facet normal -0.0453968 -0.924066 0.379527
    outer loop
      vertex 0 -11.5 28
      vertex -2.25439 -22.8892 0
      vertex 0 -23 0
    endloop
  endfacet
  facet normal -0.395566 -0.836353 0.379527
    outer loop
      vertex -5.42106 -10.1421 28
      vertex -10.8421 -20.2842 0
      vertex -8.80172 -21.2492 0
    endloop
  endfacet
  facet normal 0.311684 -0.871098 0.379527
    outer loop
      vertex 6.67655 -22.0096 0
      vertex 4.40086 -10.6246 28
      vertex 3.33827 -11.0048 28
    endloop
  endfacet
  facet normal 0.311684 -0.871098 0.379527
    outer loop
      vertex 4.40086 -10.6246 28
      vertex 6.67655 -22.0096 0
      vertex 8.80172 -21.2492 0
    endloop
  endfacet
  facet normal 0.395565 -0.836353 0.379527
    outer loop
      vertex 5.42106 -10.1421 28
      vertex 4.40086 -10.6246 28
      vertex 8.80172 -21.2492 0
    endloop
  endfacet
  facet normal 0.551129 -0.743112 0.379527
    outer loop
      vertex 14.591 -17.7792 0
      vertex 7.29552 -8.88962 28
      vertex 12.7781 -19.1238 0
    endloop
  endfacet
  facet normal 0.685513 -0.621314 0.379527
    outer loop
      vertex 8.88962 -7.29552 28
      vertex 8.13173 -8.13173 28
      vertex 16.2635 -16.2635 0
    endloop
  endfacet
  facet normal 0.793554 -0.475638 0.379527
    outer loop
      vertex 10.1421 -5.42106 28
      vertex 9.5619 -6.38906 28
      vertex 20.2842 -10.8421 0
    endloop
  endfacet
  facet normal 0.915167 -0.135753 0.379527
    outer loop
      vertex 22.8892 -2.25439 0
      vertex 11.4446 -1.1272 28
      vertex 22.5581 -4.48708 0
    endloop
  endfacet
  facet normal 0.924066 -0.0453968 0.379527
    outer loop
      vertex 11.5 0 28
      vertex 11.4446 -1.1272 28
      vertex 22.8892 -2.25439 0
    endloop
  endfacet
  facet normal -0.551129 0.743112 0.379527
    outer loop
      vertex -6.38906 9.5619 28
      vertex -12.7781 19.1238 0
      vertex -7.29552 8.88962 28
    endloop
  endfacet
  facet normal -0.0453968 0.924066 0.379527
    outer loop
      vertex 0 11.5 28
      vertex -2.25439 22.8892 0
      vertex -1.1272 11.4446 28
    endloop
  endfacet
  facet normal -0.135753 0.915167 0.379527
    outer loop
      vertex -2.25439 22.8892 0
      vertex -4.48708 22.5581 0
      vertex -1.1272 11.4446 28
    endloop
  endfacet
  facet normal 0.135753 0.915167 0.379527
    outer loop
      vertex 2.25439 22.8892 0
      vertex 1.1272 11.4446 28
      vertex 4.48708 22.5581 0
    endloop
  endfacet
  facet normal 0.135753 0.915167 0.379527
    outer loop
      vertex 4.48708 22.5581 0
      vertex 1.1272 11.4446 28
      vertex 2.24354 11.279 28
    endloop
  endfacet
  facet normal -0.836353 0.395565 0.379527
    outer loop
      vertex -10.1421 5.42106 28
      vertex -21.2492 8.80172 0
      vertex -10.6246 4.40086 28
    endloop
  endfacet
  facet normal -0.475638 -0.793554 0.379527
    outer loop
      vertex -6.38906 -9.5619 28
      vertex -10.8421 -20.2842 0
      vertex -5.42106 -10.1421 28
    endloop
  endfacet
  facet normal -0.836353 -0.395566 0.379527
    outer loop
      vertex -10.1421 -5.42106 28
      vertex -21.2492 -8.80172 0
      vertex -20.2842 -10.8421 0
    endloop
  endfacet
  facet normal -0.793554 -0.475638 0.379527
    outer loop
      vertex -9.5619 -6.38906 28
      vertex -20.2842 -10.8421 0
      vertex -19.1238 -12.7781 0
    endloop
  endfacet
  facet normal -0.924066 -0.0453968 0.379527
    outer loop
      vertex -11.5 0 28
      vertex -22.8892 -2.25439 0
      vertex -11.4446 -1.1272 28
    endloop
  endfacet
  facet normal -0.915167 -0.135753 0.379527
    outer loop
      vertex -11.4446 -1.1272 28
      vertex -22.8892 -2.25439 0
      vertex -22.5581 -4.48708 0
    endloop
  endfacet
  facet normal 0.395565 0.836353 0.379527
    outer loop
      vertex 8.80172 21.2492 0
      vertex 4.40086 10.6246 28
      vertex 5.42106 10.1421 28
    endloop
  endfacet
  facet normal 0.685513 0.621314 0.379527
    outer loop
      vertex 16.2635 16.2635 0
      vertex 8.13173 8.13173 28
      vertex 8.88962 7.29552 28
    endloop
  endfacet
  facet normal 0.621314 0.685513 0.379527
    outer loop
      vertex 16.2635 16.2635 0
      vertex 7.29552 8.88962 28
      vertex 8.13173 8.13173 28
    endloop
  endfacet
  facet normal -0.135753 -0.915167 0.379527
    outer loop
      vertex -2.24354 -11.279 28
      vertex -4.48708 -22.5581 0
      vertex -1.1272 -11.4446 28
    endloop
  endfacet
  facet normal -0.395565 -0.836353 0.379527
    outer loop
      vertex -5.42106 -10.1421 28
      vertex -8.80172 -21.2492 0
      vertex -4.40086 -10.6246 28
    endloop
  endfacet
  facet normal -0.311684 -0.871098 0.379527
    outer loop
      vertex -6.67655 -22.0096 0
      vertex -4.40086 -10.6246 28
      vertex -8.80172 -21.2492 0
    endloop
  endfacet
  facet normal -0.311684 -0.871098 0.379527
    outer loop
      vertex -4.40086 -10.6246 28
      vertex -6.67655 -22.0096 0
      vertex -3.33827 -11.0048 28
    endloop
  endfacet
  facet normal -0.2248 -0.897454 0.379527
    outer loop
      vertex -4.48708 -22.5581 0
      vertex -3.33827 -11.0048 28
      vertex -6.67655 -22.0096 0
    endloop
  endfacet
  facet normal -0.2248 -0.897454 0.379527
    outer loop
      vertex -3.33827 -11.0048 28
      vertex -4.48708 -22.5581 0
      vertex -2.24354 -11.279 28
    endloop
  endfacet
  facet normal 0.135753 -0.915167 0.379527
    outer loop
      vertex 2.24354 -11.279 28
      vertex 1.1272 -11.4446 28
      vertex 4.48708 -22.5581 0
    endloop
  endfacet
  facet normal 0.2248 -0.897454 0.379527
    outer loop
      vertex 4.48708 -22.5581 0
      vertex 3.33827 -11.0048 28
      vertex 2.24354 -11.279 28
    endloop
  endfacet
  facet normal 0.2248 -0.897454 0.379527
    outer loop
      vertex 3.33827 -11.0048 28
      vertex 4.48708 -22.5581 0
      vertex 6.67655 -22.0096 0
    endloop
  endfacet
  facet normal 0.551129 -0.743112 0.379527
    outer loop
      vertex 7.29552 -8.88962 28
      vertex 6.38906 -9.5619 28
      vertex 12.7781 -19.1238 0
    endloop
  endfacet
  facet normal 0.621314 -0.685513 0.379527
    outer loop
      vertex 8.13173 -8.13173 28
      vertex 7.29552 -8.88962 28
      vertex 16.2635 -16.2635 0
    endloop
  endfacet
  facet normal 0.871098 -0.311684 0.379527
    outer loop
      vertex 10.6246 -4.40086 28
      vertex 22.0096 -6.67655 0
      vertex 11.0048 -3.33827 28
    endloop
  endfacet
  facet normal 0.871098 -0.311684 0.379527
    outer loop
      vertex 22.0096 -6.67655 0
      vertex 10.6246 -4.40086 28
      vertex 21.2492 -8.80172 0
    endloop
  endfacet
  facet normal 0.897454 -0.2248 0.379527
    outer loop
      vertex 11.0048 -3.33827 28
      vertex 22.5581 -4.48708 0
      vertex 11.279 -2.24354 28
    endloop
  endfacet
  facet normal 0.897454 -0.2248 0.379527
    outer loop
      vertex 22.5581 -4.48708 0
      vertex 11.0048 -3.33827 28
      vertex 22.0096 -6.67655 0
    endloop
  endfacet
  facet normal 0.915167 -0.135753 0.379527
    outer loop
      vertex 11.4446 -1.1272 28
      vertex 11.279 -2.24354 28
      vertex 22.5581 -4.48708 0
    endloop
  endfacet
  facet normal -0.551129 -0.743112 0.379527
    outer loop
      vertex -7.29552 -8.88962 28
      vertex -12.7781 -19.1238 0
      vertex -6.38906 -9.5619 28
    endloop
  endfacet
  facet normal -0.475638 -0.793554 0.379527
    outer loop
      vertex -6.38906 -9.5619 28
      vertex -12.7781 -19.1238 0
      vertex -10.8421 -20.2842 0
    endloop
  endfacet
  facet normal -0.743112 -0.551129 0.379527
    outer loop
      vertex -9.5619 -6.38906 28
      vertex -19.1238 -12.7781 0
      vertex -8.88962 -7.29552 28
    endloop
  endfacet
  facet normal -0.135753 -0.915167 0.379527
    outer loop
      vertex -1.1272 -11.4446 28
      vertex -4.48708 -22.5581 0
      vertex -2.25439 -22.8892 0
    endloop
  endfacet
  facet normal -0.0453968 -0.924066 0.379527
    outer loop
      vertex -1.1272 -11.4446 28
      vertex -2.25439 -22.8892 0
      vertex 0 -11.5 28
    endloop
  endfacet
  facet normal -0.998795 -0.0490693 0
    outer loop
      vertex 4.5 0 0
      vertex 4.47833 0.441076 28
      vertex 4.47833 0.441076 0
    endloop
  endfacet
  facet normal -0.998795 -0.0490693 0
    outer loop
      vertex 4.47833 0.441076 28
      vertex 4.5 0 0
      vertex 4.5 0 28
    endloop
  endfacet
  facet normal 0.998795 -0.0490693 0
    outer loop
      vertex -4.5 0 28
      vertex -4.47833 0.441076 0
      vertex -4.47833 0.441076 28
    endloop
  endfacet
  facet normal 0.998795 -0.0490693 0
    outer loop
      vertex -4.47833 0.441076 0
      vertex -4.5 0 28
      vertex -4.5 0 0
    endloop
  endfacet
  facet normal -0.0490693 -0.998795 0
    outer loop
      vertex 0 4.5 0
      vertex 0.441076 4.47833 28
      vertex 0 4.5 28
    endloop
  endfacet
  facet normal -0.0490693 -0.998795 -0
    outer loop
      vertex 0.441076 4.47833 28
      vertex 0 4.5 0
      vertex 0.441076 4.47833 0
    endloop
  endfacet
  facet normal 0.740951 0.671559 0
    outer loop
      vertex -3.18198 -3.18198 28
      vertex -3.47855 -2.85477 0
      vertex -3.47855 -2.85477 28
    endloop
  endfacet
  facet normal 0.740951 0.671559 0
    outer loop
      vertex -3.47855 -2.85477 0
      vertex -3.18198 -3.18198 28
      vertex -3.18198 -3.18198 0
    endloop
  endfacet
  facet normal -0.740951 -0.671559 0
    outer loop
      vertex 3.47855 2.85477 0
      vertex 3.18198 3.18198 28
      vertex 3.18198 3.18198 0
    endloop
  endfacet
  facet normal -0.740951 -0.671559 0
    outer loop
      vertex 3.18198 3.18198 28
      vertex 3.47855 2.85477 0
      vertex 3.47855 2.85477 28
    endloop
  endfacet
  facet normal 0.671559 -0.740951 0
    outer loop
      vertex -3.18198 3.18198 0
      vertex -2.85477 3.47855 28
      vertex -3.18198 3.18198 28
    endloop
  endfacet
  facet normal 0.671559 -0.740951 0
    outer loop
      vertex -2.85477 3.47855 28
      vertex -3.18198 3.18198 0
      vertex -2.85477 3.47855 0
    endloop
  endfacet
  facet normal 0.336891 -0.941544 0
    outer loop
      vertex -1.72207 4.15746 0
      vertex -1.30628 4.30623 28
      vertex -1.72207 4.15746 28
    endloop
  endfacet
  facet normal 0.336891 -0.941544 0
    outer loop
      vertex -1.30628 4.30623 28
      vertex -1.72207 4.15746 0
      vertex -1.30628 4.30623 0
    endloop
  endfacet
  facet normal 0.941544 0.336891 0
    outer loop
      vertex -4.15746 -1.72207 28
      vertex -4.30623 -1.30628 0
      vertex -4.30623 -1.30628 28
    endloop
  endfacet
  facet normal 0.941544 0.336891 0
    outer loop
      vertex -4.30623 -1.30628 0
      vertex -4.15746 -1.72207 28
      vertex -4.15746 -1.72207 0
    endloop
  endfacet
  facet normal -0.941544 -0.336891 0
    outer loop
      vertex 4.30623 1.30628 0
      vertex 4.15746 1.72207 28
      vertex 4.15746 1.72207 0
    endloop
  endfacet
  facet normal -0.941544 -0.336891 0
    outer loop
      vertex 4.15746 1.72207 28
      vertex 4.30623 1.30628 0
      vertex 4.30623 1.30628 28
    endloop
  endfacet
  facet normal -0.427555 -0.903989 0
    outer loop
      vertex 1.72207 4.15746 0
      vertex 2.12128 3.96865 28
      vertex 1.72207 4.15746 28
    endloop
  endfacet
  facet normal -0.427555 -0.903989 -0
    outer loop
      vertex 2.12128 3.96865 28
      vertex 1.72207 4.15746 0
      vertex 2.12128 3.96865 0
    endloop
  endfacet
  facet normal -0.595699 -0.803208 0
    outer loop
      vertex 2.50007 3.74161 0
      vertex 2.85477 3.47855 28
      vertex 2.50007 3.74161 28
    endloop
  endfacet
  facet normal -0.595699 -0.803208 -0
    outer loop
      vertex 2.85477 3.47855 28
      vertex 2.50007 3.74161 0
      vertex 2.85477 3.47855 0
    endloop
  endfacet
  facet normal 0.903989 -0.427555 0
    outer loop
      vertex -4.15746 1.72207 28
      vertex -3.96865 2.12128 0
      vertex -3.96865 2.12128 28
    endloop
  endfacet
  facet normal 0.903989 -0.427555 0
    outer loop
      vertex -3.96865 2.12128 0
      vertex -4.15746 1.72207 28
      vertex -4.15746 1.72207 0
    endloop
  endfacet
  facet normal 0.14673 -0.989177 0
    outer loop
      vertex -0.877906 4.41353 0
      vertex -0.441076 4.47833 28
      vertex -0.877906 4.41353 28
    endloop
  endfacet
  facet normal 0.14673 -0.989177 0
    outer loop
      vertex -0.441076 4.47833 28
      vertex -0.877906 4.41353 0
      vertex -0.441076 4.47833 0
    endloop
  endfacet
  facet normal -0.970031 -0.242979 0
    outer loop
      vertex 4.41353 0.877906 0
      vertex 4.30623 1.30628 28
      vertex 4.30623 1.30628 0
    endloop
  endfacet
  facet normal -0.970031 -0.242979 0
    outer loop
      vertex 4.30623 1.30628 28
      vertex 4.41353 0.877906 0
      vertex 4.41353 0.877906 28
    endloop
  endfacet
  facet normal -0.989177 -0.14673 0
    outer loop
      vertex 4.47833 0.441076 0
      vertex 4.41353 0.877906 28
      vertex 4.41353 0.877906 0
    endloop
  endfacet
  facet normal -0.989177 -0.14673 0
    outer loop
      vertex 4.41353 0.877906 28
      vertex 4.47833 0.441076 0
      vertex 4.47833 0.441076 28
    endloop
  endfacet
  facet normal -0.857729 -0.514103 0
    outer loop
      vertex 3.96865 2.12128 0
      vertex 3.74161 2.50007 28
      vertex 3.74161 2.50007 0
    endloop
  endfacet
  facet normal -0.857729 -0.514103 0
    outer loop
      vertex 3.74161 2.50007 28
      vertex 3.96865 2.12128 0
      vertex 3.96865 2.12128 28
    endloop
  endfacet
  facet normal -0.803208 -0.595699 0
    outer loop
      vertex 3.74161 2.50007 0
      vertex 3.47855 2.85477 28
      vertex 3.47855 2.85477 0
    endloop
  endfacet
  facet normal -0.803208 -0.595699 0
    outer loop
      vertex 3.47855 2.85477 28
      vertex 3.74161 2.50007 0
      vertex 3.74161 2.50007 28
    endloop
  endfacet
  facet normal -0.903989 -0.427555 0
    outer loop
      vertex 4.15746 1.72207 0
      vertex 3.96865 2.12128 28
      vertex 3.96865 2.12128 0
    endloop
  endfacet
  facet normal -0.903989 -0.427555 0
    outer loop
      vertex 3.96865 2.12128 28
      vertex 4.15746 1.72207 0
      vertex 4.15746 1.72207 28
    endloop
  endfacet
  facet normal -0.242979 -0.970031 0
    outer loop
      vertex 0.877906 4.41353 0
      vertex 1.30628 4.30623 28
      vertex 0.877906 4.41353 28
    endloop
  endfacet
  facet normal -0.242979 -0.970031 -0
    outer loop
      vertex 1.30628 4.30623 28
      vertex 0.877906 4.41353 0
      vertex 1.30628 4.30623 0
    endloop
  endfacet
  facet normal -0.336891 -0.941544 0
    outer loop
      vertex 1.30628 4.30623 0
      vertex 1.72207 4.15746 28
      vertex 1.30628 4.30623 28
    endloop
  endfacet
  facet normal -0.336891 -0.941544 -0
    outer loop
      vertex 1.72207 4.15746 28
      vertex 1.30628 4.30623 0
      vertex 1.72207 4.15746 0
    endloop
  endfacet
  facet normal -0.14673 -0.989177 0
    outer loop
      vertex 0.441076 4.47833 0
      vertex 0.877906 4.41353 28
      vertex 0.441076 4.47833 28
    endloop
  endfacet
  facet normal -0.14673 -0.989177 -0
    outer loop
      vertex 0.877906 4.41353 28
      vertex 0.441076 4.47833 0
      vertex 0.877906 4.41353 0
    endloop
  endfacet
  facet normal -0.514103 -0.857729 0
    outer loop
      vertex 2.12128 3.96865 0
      vertex 2.50007 3.74161 28
      vertex 2.12128 3.96865 28
    endloop
  endfacet
  facet normal -0.514103 -0.857729 -0
    outer loop
      vertex 2.50007 3.74161 28
      vertex 2.12128 3.96865 0
      vertex 2.50007 3.74161 0
    endloop
  endfacet
  facet normal -0.671559 -0.740951 0
    outer loop
      vertex 2.85477 3.47855 0
      vertex 3.18198 3.18198 28
      vertex 2.85477 3.47855 28
    endloop
  endfacet
  facet normal -0.671559 -0.740951 -0
    outer loop
      vertex 3.18198 3.18198 28
      vertex 2.85477 3.47855 0
      vertex 3.18198 3.18198 0
    endloop
  endfacet
  facet normal 0.970031 -0.242979 0
    outer loop
      vertex -4.41353 0.877906 28
      vertex -4.30623 1.30628 0
      vertex -4.30623 1.30628 28
    endloop
  endfacet
  facet normal 0.970031 -0.242979 0
    outer loop
      vertex -4.30623 1.30628 0
      vertex -4.41353 0.877906 28
      vertex -4.41353 0.877906 0
    endloop
  endfacet
  facet normal 0.803208 -0.595699 0
    outer loop
      vertex -3.74161 2.50007 28
      vertex -3.47855 2.85477 0
      vertex -3.47855 2.85477 28
    endloop
  endfacet
  facet normal 0.803208 -0.595699 0
    outer loop
      vertex -3.47855 2.85477 0
      vertex -3.74161 2.50007 28
      vertex -3.74161 2.50007 0
    endloop
  endfacet
  facet normal 0.740951 -0.671559 0
    outer loop
      vertex -3.47855 2.85477 28
      vertex -3.18198 3.18198 0
      vertex -3.18198 3.18198 28
    endloop
  endfacet
  facet normal 0.740951 -0.671559 0
    outer loop
      vertex -3.18198 3.18198 0
      vertex -3.47855 2.85477 28
      vertex -3.47855 2.85477 0
    endloop
  endfacet
  facet normal 0.857729 -0.514103 0
    outer loop
      vertex -3.96865 2.12128 28
      vertex -3.74161 2.50007 0
      vertex -3.74161 2.50007 28
    endloop
  endfacet
  facet normal 0.857729 -0.514103 0
    outer loop
      vertex -3.74161 2.50007 0
      vertex -3.96865 2.12128 28
      vertex -3.96865 2.12128 0
    endloop
  endfacet
  facet normal 0.941544 -0.336891 0
    outer loop
      vertex -4.30623 1.30628 28
      vertex -4.15746 1.72207 0
      vertex -4.15746 1.72207 28
    endloop
  endfacet
  facet normal 0.941544 -0.336891 0
    outer loop
      vertex -4.15746 1.72207 0
      vertex -4.30623 1.30628 28
      vertex -4.30623 1.30628 0
    endloop
  endfacet
  facet normal 0.989177 -0.14673 0
    outer loop
      vertex -4.47833 0.441076 28
      vertex -4.41353 0.877906 0
      vertex -4.41353 0.877906 28
    endloop
  endfacet
  facet normal 0.989177 -0.14673 0
    outer loop
      vertex -4.41353 0.877906 0
      vertex -4.47833 0.441076 28
      vertex -4.47833 0.441076 0
    endloop
  endfacet
  facet normal 0.514103 -0.857729 0
    outer loop
      vertex -2.50007 3.74161 0
      vertex -2.12128 3.96865 28
      vertex -2.50007 3.74161 28
    endloop
  endfacet
  facet normal 0.514103 -0.857729 0
    outer loop
      vertex -2.12128 3.96865 28
      vertex -2.50007 3.74161 0
      vertex -2.12128 3.96865 0
    endloop
  endfacet
  facet normal 0.427555 -0.903989 0
    outer loop
      vertex -2.12128 3.96865 0
      vertex -1.72207 4.15746 28
      vertex -2.12128 3.96865 28
    endloop
  endfacet
  facet normal 0.427555 -0.903989 0
    outer loop
      vertex -1.72207 4.15746 28
      vertex -2.12128 3.96865 0
      vertex -1.72207 4.15746 0
    endloop
  endfacet
  facet normal 0.595699 -0.803208 0
    outer loop
      vertex -2.85477 3.47855 0
      vertex -2.50007 3.74161 28
      vertex -2.85477 3.47855 28
    endloop
  endfacet
  facet normal 0.595699 -0.803208 0
    outer loop
      vertex -2.50007 3.74161 28
      vertex -2.85477 3.47855 0
      vertex -2.50007 3.74161 0
    endloop
  endfacet
  facet normal 0.242979 -0.970031 0
    outer loop
      vertex -1.30628 4.30623 0
      vertex -0.877906 4.41353 28
      vertex -1.30628 4.30623 28
    endloop
  endfacet
  facet normal 0.242979 -0.970031 0
    outer loop
      vertex -0.877906 4.41353 28
      vertex -1.30628 4.30623 0
      vertex -0.877906 4.41353 0
    endloop
  endfacet
  facet normal 0.0490693 -0.998795 0
    outer loop
      vertex -0.441076 4.47833 0
      vertex 0 4.5 28
      vertex -0.441076 4.47833 28
    endloop
  endfacet
  facet normal 0.0490693 -0.998795 0
    outer loop
      vertex 0 4.5 28
      vertex -0.441076 4.47833 0
      vertex 0 4.5 0
    endloop
  endfacet
  facet normal -0.0490693 0.998795 0
    outer loop
      vertex 0.441076 -4.47833 0
      vertex 0 -4.5 28
      vertex 0.441076 -4.47833 28
    endloop
  endfacet
  facet normal -0.0490693 0.998795 0
    outer loop
      vertex 0 -4.5 28
      vertex 0.441076 -4.47833 0
      vertex 0 -4.5 0
    endloop
  endfacet
  facet normal -0.242979 0.970031 0
    outer loop
      vertex 1.30628 -4.30623 0
      vertex 0.877906 -4.41353 28
      vertex 1.30628 -4.30623 28
    endloop
  endfacet
  facet normal -0.242979 0.970031 0
    outer loop
      vertex 0.877906 -4.41353 28
      vertex 1.30628 -4.30623 0
      vertex 0.877906 -4.41353 0
    endloop
  endfacet
  facet normal -0.595699 0.803208 0
    outer loop
      vertex 2.85477 -3.47855 0
      vertex 2.50007 -3.74161 28
      vertex 2.85477 -3.47855 28
    endloop
  endfacet
  facet normal -0.595699 0.803208 0
    outer loop
      vertex 2.50007 -3.74161 28
      vertex 2.85477 -3.47855 0
      vertex 2.50007 -3.74161 0
    endloop
  endfacet
  facet normal -0.427555 0.903989 0
    outer loop
      vertex 2.12128 -3.96865 0
      vertex 1.72207 -4.15746 28
      vertex 2.12128 -3.96865 28
    endloop
  endfacet
  facet normal -0.427555 0.903989 0
    outer loop
      vertex 1.72207 -4.15746 28
      vertex 2.12128 -3.96865 0
      vertex 1.72207 -4.15746 0
    endloop
  endfacet
  facet normal -0.740951 0.671559 0
    outer loop
      vertex 3.18198 -3.18198 0
      vertex 3.47855 -2.85477 28
      vertex 3.47855 -2.85477 0
    endloop
  endfacet
  facet normal -0.740951 0.671559 0
    outer loop
      vertex 3.47855 -2.85477 28
      vertex 3.18198 -3.18198 0
      vertex 3.18198 -3.18198 28
    endloop
  endfacet
  facet normal -0.857729 0.514103 0
    outer loop
      vertex 3.74161 -2.50007 0
      vertex 3.96865 -2.12128 28
      vertex 3.96865 -2.12128 0
    endloop
  endfacet
  facet normal -0.857729 0.514103 0
    outer loop
      vertex 3.96865 -2.12128 28
      vertex 3.74161 -2.50007 0
      vertex 3.74161 -2.50007 28
    endloop
  endfacet
  facet normal 0.671559 0.740951 -0
    outer loop
      vertex -2.85477 -3.47855 0
      vertex -3.18198 -3.18198 28
      vertex -2.85477 -3.47855 28
    endloop
  endfacet
  facet normal 0.671559 0.740951 0
    outer loop
      vertex -3.18198 -3.18198 28
      vertex -2.85477 -3.47855 0
      vertex -3.18198 -3.18198 0
    endloop
  endfacet
  facet normal 0.514103 0.857729 -0
    outer loop
      vertex -2.12128 -3.96865 0
      vertex -2.50007 -3.74161 28
      vertex -2.12128 -3.96865 28
    endloop
  endfacet
  facet normal 0.514103 0.857729 0
    outer loop
      vertex -2.50007 -3.74161 28
      vertex -2.12128 -3.96865 0
      vertex -2.50007 -3.74161 0
    endloop
  endfacet
  facet normal 0.336891 0.941544 -0
    outer loop
      vertex -1.30628 -4.30623 0
      vertex -1.72207 -4.15746 28
      vertex -1.30628 -4.30623 28
    endloop
  endfacet
  facet normal 0.336891 0.941544 0
    outer loop
      vertex -1.72207 -4.15746 28
      vertex -1.30628 -4.30623 0
      vertex -1.72207 -4.15746 0
    endloop
  endfacet
  facet normal 0.14673 0.989177 -0
    outer loop
      vertex -0.441076 -4.47833 0
      vertex -0.877906 -4.41353 28
      vertex -0.441076 -4.47833 28
    endloop
  endfacet
  facet normal 0.14673 0.989177 0
    outer loop
      vertex -0.877906 -4.41353 28
      vertex -0.441076 -4.47833 0
      vertex -0.877906 -4.41353 0
    endloop
  endfacet
  facet normal 0.903989 0.427555 0
    outer loop
      vertex -3.96865 -2.12128 28
      vertex -4.15746 -1.72207 0
      vertex -4.15746 -1.72207 28
    endloop
  endfacet
  facet normal 0.903989 0.427555 0
    outer loop
      vertex -4.15746 -1.72207 0
      vertex -3.96865 -2.12128 28
      vertex -3.96865 -2.12128 0
    endloop
  endfacet
  facet normal 0.803208 0.595699 0
    outer loop
      vertex -3.47855 -2.85477 28
      vertex -3.74161 -2.50007 0
      vertex -3.74161 -2.50007 28
    endloop
  endfacet
  facet normal 0.803208 0.595699 0
    outer loop
      vertex -3.74161 -2.50007 0
      vertex -3.47855 -2.85477 28
      vertex -3.47855 -2.85477 0
    endloop
  endfacet
  facet normal 0.970031 0.242979 0
    outer loop
      vertex -4.30623 -1.30628 28
      vertex -4.41353 -0.877906 0
      vertex -4.41353 -0.877906 28
    endloop
  endfacet
  facet normal 0.970031 0.242979 0
    outer loop
      vertex -4.41353 -0.877906 0
      vertex -4.30623 -1.30628 28
      vertex -4.30623 -1.30628 0
    endloop
  endfacet
  facet normal 0.998795 0.0490693 0
    outer loop
      vertex -4.47833 -0.441076 28
      vertex -4.5 0 0
      vertex -4.5 0 28
    endloop
  endfacet
  facet normal 0.998795 0.0490693 0
    outer loop
      vertex -4.5 0 0
      vertex -4.47833 -0.441076 28
      vertex -4.47833 -0.441076 0
    endloop
  endfacet
  facet normal -0.14673 0.989177 0
    outer loop
      vertex 0.877906 -4.41353 0
      vertex 0.441076 -4.47833 28
      vertex 0.877906 -4.41353 28
    endloop
  endfacet
  facet normal -0.14673 0.989177 0
    outer loop
      vertex 0.441076 -4.47833 28
      vertex 0.877906 -4.41353 0
      vertex 0.441076 -4.47833 0
    endloop
  endfacet
  facet normal -0.336891 0.941544 0
    outer loop
      vertex 1.72207 -4.15746 0
      vertex 1.30628 -4.30623 28
      vertex 1.72207 -4.15746 28
    endloop
  endfacet
  facet normal -0.336891 0.941544 0
    outer loop
      vertex 1.30628 -4.30623 28
      vertex 1.72207 -4.15746 0
      vertex 1.30628 -4.30623 0
    endloop
  endfacet
  facet normal -0.671559 0.740951 0
    outer loop
      vertex 3.18198 -3.18198 0
      vertex 2.85477 -3.47855 28
      vertex 3.18198 -3.18198 28
    endloop
  endfacet
  facet normal -0.671559 0.740951 0
    outer loop
      vertex 2.85477 -3.47855 28
      vertex 3.18198 -3.18198 0
      vertex 2.85477 -3.47855 0
    endloop
  endfacet
  facet normal -0.514103 0.857729 0
    outer loop
      vertex 2.50007 -3.74161 0
      vertex 2.12128 -3.96865 28
      vertex 2.50007 -3.74161 28
    endloop
  endfacet
  facet normal -0.514103 0.857729 0
    outer loop
      vertex 2.12128 -3.96865 28
      vertex 2.50007 -3.74161 0
      vertex 2.12128 -3.96865 0
    endloop
  endfacet
  facet normal -0.803208 0.595699 0
    outer loop
      vertex 3.47855 -2.85477 0
      vertex 3.74161 -2.50007 28
      vertex 3.74161 -2.50007 0
    endloop
  endfacet
  facet normal -0.803208 0.595699 0
    outer loop
      vertex 3.74161 -2.50007 28
      vertex 3.47855 -2.85477 0
      vertex 3.47855 -2.85477 28
    endloop
  endfacet
  facet normal -0.903989 0.427555 0
    outer loop
      vertex 3.96865 -2.12128 0
      vertex 4.15746 -1.72207 28
      vertex 4.15746 -1.72207 0
    endloop
  endfacet
  facet normal -0.903989 0.427555 0
    outer loop
      vertex 4.15746 -1.72207 28
      vertex 3.96865 -2.12128 0
      vertex 3.96865 -2.12128 28
    endloop
  endfacet
  facet normal -0.989177 0.14673 0
    outer loop
      vertex 4.41353 -0.877906 0
      vertex 4.47833 -0.441076 28
      vertex 4.47833 -0.441076 0
    endloop
  endfacet
  facet normal -0.989177 0.14673 0
    outer loop
      vertex 4.47833 -0.441076 28
      vertex 4.41353 -0.877906 0
      vertex 4.41353 -0.877906 28
    endloop
  endfacet
  facet normal -0.970031 0.242979 0
    outer loop
      vertex 4.30623 -1.30628 0
      vertex 4.41353 -0.877906 28
      vertex 4.41353 -0.877906 0
    endloop
  endfacet
  facet normal -0.970031 0.242979 0
    outer loop
      vertex 4.41353 -0.877906 28
      vertex 4.30623 -1.30628 0
      vertex 4.30623 -1.30628 28
    endloop
  endfacet
  facet normal -0.998795 0.0490693 0
    outer loop
      vertex 4.47833 -0.441076 0
      vertex 4.5 0 28
      vertex 4.5 0 0
    endloop
  endfacet
  facet normal -0.998795 0.0490693 0
    outer loop
      vertex 4.5 0 28
      vertex 4.47833 -0.441076 0
      vertex 4.47833 -0.441076 28
    endloop
  endfacet
  facet normal 0.595699 0.803208 -0
    outer loop
      vertex -2.50007 -3.74161 0
      vertex -2.85477 -3.47855 28
      vertex -2.50007 -3.74161 28
    endloop
  endfacet
  facet normal 0.595699 0.803208 0
    outer loop
      vertex -2.85477 -3.47855 28
      vertex -2.50007 -3.74161 0
      vertex -2.85477 -3.47855 0
    endloop
  endfacet
  facet normal 0.427555 0.903989 -0
    outer loop
      vertex -1.72207 -4.15746 0
      vertex -2.12128 -3.96865 28
      vertex -1.72207 -4.15746 28
    endloop
  endfacet
  facet normal 0.427555 0.903989 0
    outer loop
      vertex -2.12128 -3.96865 28
      vertex -1.72207 -4.15746 0
      vertex -2.12128 -3.96865 0
    endloop
  endfacet
  facet normal 0.242979 0.970031 -0
    outer loop
      vertex -0.877906 -4.41353 0
      vertex -1.30628 -4.30623 28
      vertex -0.877906 -4.41353 28
    endloop
  endfacet
  facet normal 0.242979 0.970031 0
    outer loop
      vertex -1.30628 -4.30623 28
      vertex -0.877906 -4.41353 0
      vertex -1.30628 -4.30623 0
    endloop
  endfacet
  facet normal 0.0490693 0.998795 -0
    outer loop
      vertex 0 -4.5 0
      vertex -0.441076 -4.47833 28
      vertex 0 -4.5 28
    endloop
  endfacet
  facet normal 0.0490693 0.998795 0
    outer loop
      vertex -0.441076 -4.47833 28
      vertex 0 -4.5 0
      vertex -0.441076 -4.47833 0
    endloop
  endfacet
  facet normal 0.857729 0.514103 0
    outer loop
      vertex -3.74161 -2.50007 28
      vertex -3.96865 -2.12128 0
      vertex -3.96865 -2.12128 28
    endloop
  endfacet
  facet normal 0.857729 0.514103 0
    outer loop
      vertex -3.96865 -2.12128 0
      vertex -3.74161 -2.50007 28
      vertex -3.74161 -2.50007 0
    endloop
  endfacet
  facet normal 0.989177 0.14673 0
    outer loop
      vertex -4.41353 -0.877906 28
      vertex -4.47833 -0.441076 0
      vertex -4.47833 -0.441076 28
    endloop
  endfacet
  facet normal 0.989177 0.14673 0
    outer loop
      vertex -4.47833 -0.441076 0
      vertex -4.41353 -0.877906 28
      vertex -4.41353 -0.877906 0
    endloop
  endfacet
  facet normal -0.941544 0.336891 0
    outer loop
      vertex 4.15746 -1.72207 0
      vertex 4.30623 -1.30628 28
      vertex 4.30623 -1.30628 0
    endloop
  endfacet
  facet normal -0.941544 0.336891 0
    outer loop
      vertex 4.30623 -1.30628 28
      vertex 4.15746 -1.72207 0
      vertex 4.15746 -1.72207 28
    endloop
  endfacet
endsolid OpenSCAD_Model
